<svg xmlns="http://www.w3.org/2000/svg" xmlns:xlink="http://www.w3.org/1999/xlink" contentStyleType="text/css" data-diagram-type="CLASS" height="1116px" preserveAspectRatio="none" style="width:845px;height:1116px;background:#FFFFFF;" version="1.1" viewBox="0 0 845 1116" width="845px" zoomAndPan="magnify"><defs/><g><!--class app_user--><g class="entity" data-entity="app_user" data-source-line="2" data-uid="ent0002" id="entity_app_user"><rect fill="#F1F1F1" height="162.0781" rx="2.5" ry="2.5" style="stroke:#181818;stroke-width:0.5;" width="251.1689" x="285.6" y="789.42"/><ellipse cx="374.9901" cy="805.42" fill="#ADD1B2" rx="11" ry="11" style="stroke:#181818;stroke-width:1;"/><path d="M377.9589,811.0606 Q377.3808,811.3575 376.7401,811.4981 Q376.0995,811.6544 375.3964,811.6544 Q372.8964,811.6544 371.5683,810.0137 Q370.2558,808.3575 370.2558,805.2325 Q370.2558,802.1075 371.5683,800.4512 Q372.8964,798.795 375.3964,798.795 Q376.0995,798.795 376.7401,798.9512 Q377.3964,799.1075 377.9589,799.4044 L377.9589,802.1231 Q377.3339,801.545 376.7401,801.2794 Q376.1464,800.9981 375.5214,800.9981 Q374.1776,800.9981 373.4901,802.0762 Q372.8026,803.1387 372.8026,805.2325 Q372.8026,807.3262 373.4901,808.4044 Q374.1776,809.4669 375.5214,809.4669 Q376.1464,809.4669 376.7401,809.2012 Q377.3339,808.92 377.9589,808.3419 L377.9589,811.0606 Z " fill="#000000"/><text fill="#000000" font-family="sans-serif" font-size="14" lengthAdjust="spacing" textLength="63.8887" x="395.4901" y="810.2667">app_user</text><line style="stroke:#181818;stroke-width:0.5;" x1="286.6" x2="535.7689" y1="821.42" y2="821.42"/><g data-visibility-modifier="PUBLIC_FIELD"><ellipse cx="296.6" cy="835.0684" fill="none" rx="3" ry="3" style="stroke:#038048;stroke-width:1;"/></g><text fill="#000000" font-family="sans-serif" font-size="14" lengthAdjust="spacing" textLength="61.8584" x="305.6" y="838.4151">id: bigint</text><g data-visibility-modifier="PUBLIC_FIELD"><ellipse cx="296.6" cy="851.3653" fill="none" rx="3" ry="3" style="stroke:#038048;stroke-width:1;"/></g><text fill="#000000" font-family="sans-serif" font-size="14" lengthAdjust="spacing" textLength="95.6826" x="305.6" y="854.712">role_id: bigint</text><g data-visibility-modifier="PUBLIC_FIELD"><ellipse cx="296.6" cy="867.6622" fill="none" rx="3" ry="3" style="stroke:#038048;stroke-width:1;"/></g><text fill="#000000" font-family="sans-serif" font-size="14" lengthAdjust="spacing" textLength="136.1855" x="305.6" y="871.0089">is_verified: boolean</text><g data-visibility-modifier="PUBLIC_FIELD"><ellipse cx="296.6" cy="883.9591" fill="none" rx="3" ry="3" style="stroke:#038048;stroke-width:1;"/></g><text fill="#000000" font-family="sans-serif" font-size="14" lengthAdjust="spacing" textLength="136.0352" x="305.6" y="887.3057">is_banned: boolean</text><g data-visibility-modifier="PUBLIC_FIELD"><ellipse cx="296.6" cy="900.2559" fill="none" rx="3" ry="3" style="stroke:#038048;stroke-width:1;"/></g><text fill="#000000" font-family="sans-serif" font-size="14" lengthAdjust="spacing" textLength="159.3867" x="305.6" y="903.6026">created_at: timestamp</text><line style="stroke:#181818;stroke-width:0.5;" x1="286.6" x2="535.7689" y1="910.9044" y2="910.9044"/><g data-visibility-modifier="PUBLIC_METHOD"><ellipse cx="296.6" cy="924.5528" fill="#84BE84" rx="3" ry="3" style="stroke:#038048;stroke-width:1;"/></g><text fill="#000000" font-family="sans-serif" font-size="14" lengthAdjust="spacing" textLength="138.9473" x="305.6" y="927.8995">email: varchar(150)</text><g data-visibility-modifier="PUBLIC_METHOD"><ellipse cx="296.6" cy="940.8497" fill="#84BE84" rx="3" ry="3" style="stroke:#038048;stroke-width:1;"/></g><text fill="#000000" font-family="sans-serif" font-size="14" lengthAdjust="spacing" textLength="225.1689" x="305.6" y="944.1964">hashed_password: varchar(250)</text></g><!--class ref_role--><g class="entity" data-entity="ref_role" data-source-line="12" data-uid="ent0003" id="entity_ref_role"><rect fill="#F1F1F1" height="80.5938" rx="2.5" ry="2.5" style="stroke:#181818;stroke-width:0.5;" width="157.1338" x="332.62" y="1028.5"/><ellipse cx="380.3759" cy="1044.5" fill="#ADD1B2" rx="11" ry="11" style="stroke:#181818;stroke-width:1;"/><path d="M383.3446,1050.1406 Q382.7665,1050.4375 382.1259,1050.5781 Q381.4852,1050.7344 380.7821,1050.7344 Q378.2821,1050.7344 376.954,1049.0938 Q375.6415,1047.4375 375.6415,1044.3125 Q375.6415,1041.1875 376.954,1039.5313 Q378.2821,1037.875 380.7821,1037.875 Q381.4852,1037.875 382.1259,1038.0313 Q382.7821,1038.1875 383.3446,1038.4844 L383.3446,1041.2031 Q382.7196,1040.625 382.1259,1040.3594 Q381.5321,1040.0781 380.9071,1040.0781 Q379.5634,1040.0781 378.8759,1041.1563 Q378.1884,1042.2188 378.1884,1044.3125 Q378.1884,1046.4063 378.8759,1047.4844 Q379.5634,1048.5469 380.9071,1048.5469 Q381.5321,1048.5469 382.1259,1048.2813 Q382.7196,1048 383.3446,1047.4219 L383.3446,1050.1406 Z " fill="#000000"/><text fill="#000000" font-family="sans-serif" font-size="14" lengthAdjust="spacing" textLength="53.1221" x="400.8759" y="1049.3467">ref_role</text><line style="stroke:#181818;stroke-width:0.5;" x1="333.62" x2="488.7538" y1="1060.5" y2="1060.5"/><g data-visibility-modifier="PUBLIC_FIELD"><ellipse cx="343.62" cy="1074.1484" fill="none" rx="3" ry="3" style="stroke:#038048;stroke-width:1;"/></g><text fill="#000000" font-family="sans-serif" font-size="14" lengthAdjust="spacing" textLength="61.8584" x="352.62" y="1077.4951">id: bigint</text><line style="stroke:#181818;stroke-width:0.5;" x1="333.62" x2="488.7538" y1="1084.7969" y2="1084.7969"/><g data-visibility-modifier="PUBLIC_METHOD"><ellipse cx="343.62" cy="1098.4453" fill="#84BE84" rx="3" ry="3" style="stroke:#038048;stroke-width:1;"/></g><text fill="#000000" font-family="sans-serif" font-size="14" lengthAdjust="spacing" textLength="131.1338" x="352.62" y="1101.792">name: varchar(50)</text></g><!--class student--><g class="entity" data-entity="student" data-source-line="17" data-uid="ent0004" id="entity_student"><rect fill="#F1F1F1" height="96.8906" rx="2.5" ry="2.5" style="stroke:#181818;stroke-width:0.5;" width="211.7119" x="187.33" y="360.15"/><ellipse cx="262.1767" cy="376.15" fill="#ADD1B2" rx="11" ry="11" style="stroke:#181818;stroke-width:1;"/><path d="M265.1454,381.7906 Q264.5673,382.0875 263.9267,382.2281 Q263.2861,382.3844 262.5829,382.3844 Q260.0829,382.3844 258.7548,380.7437 Q257.4423,379.0875 257.4423,375.9625 Q257.4423,372.8375 258.7548,371.1812 Q260.0829,369.525 262.5829,369.525 Q263.2861,369.525 263.9267,369.6812 Q264.5829,369.8375 265.1454,370.1344 L265.1454,372.8531 Q264.5204,372.275 263.9267,372.0094 Q263.3329,371.7281 262.7079,371.7281 Q261.3642,371.7281 260.6767,372.8062 Q259.9892,373.8687 259.9892,375.9625 Q259.9892,378.0562 260.6767,379.1344 Q261.3642,380.1969 262.7079,380.1969 Q263.3329,380.1969 263.9267,379.9312 Q264.5204,379.65 265.1454,379.0719 L265.1454,381.7906 Z " fill="#000000"/><text fill="#000000" font-family="sans-serif" font-size="14" lengthAdjust="spacing" textLength="53.5186" x="282.6767" y="380.9967">student</text><line style="stroke:#181818;stroke-width:0.5;" x1="188.33" x2="398.0419" y1="392.15" y2="392.15"/><g data-visibility-modifier="PUBLIC_FIELD"><ellipse cx="198.33" cy="405.7984" fill="none" rx="3" ry="3" style="stroke:#038048;stroke-width:1;"/></g><text fill="#000000" font-family="sans-serif" font-size="14" lengthAdjust="spacing" textLength="61.8584" x="207.33" y="409.1451">id: bigint</text><line style="stroke:#181818;stroke-width:0.5;" x1="188.33" x2="398.0419" y1="416.4469" y2="416.4469"/><g data-visibility-modifier="PUBLIC_METHOD"><ellipse cx="198.33" cy="430.0953" fill="#84BE84" rx="3" ry="3" style="stroke:#038048;stroke-width:1;"/></g><text fill="#000000" font-family="sans-serif" font-size="14" lengthAdjust="spacing" textLength="185.7119" x="207.33" y="433.442">student_code: varchar(50)</text><g data-visibility-modifier="PUBLIC_METHOD"><ellipse cx="198.33" cy="446.3922" fill="#84BE84" rx="3" ry="3" style="stroke:#038048;stroke-width:1;"/></g><text fill="#000000" font-family="sans-serif" font-size="14" lengthAdjust="spacing" textLength="168.6221" x="207.33" y="449.7389">full_name: varchar(200)</text></g><!--class teacher_profile--><g class="entity" data-entity="teacher_profile" data-source-line="23" data-uid="ent0005" id="entity_teacher_profile"><rect fill="#F1F1F1" height="96.8906" rx="2.5" ry="2.5" style="stroke:#181818;stroke-width:0.5;" width="166.041" x="328.17" y="599.23"/><ellipse cx="356.1708" cy="615.23" fill="#ADD1B2" rx="11" ry="11" style="stroke:#181818;stroke-width:1;"/><path d="M359.1395,620.8706 Q358.5614,621.1675 357.9208,621.3081 Q357.2802,621.4644 356.577,621.4644 Q354.077,621.4644 352.7489,619.8237 Q351.4364,618.1675 351.4364,615.0425 Q351.4364,611.9175 352.7489,610.2612 Q354.077,608.605 356.577,608.605 Q357.2802,608.605 357.9208,608.7612 Q358.577,608.9175 359.1395,609.2144 L359.1395,611.9331 Q358.5145,611.355 357.9208,611.0894 Q357.327,610.8081 356.702,610.8081 Q355.3583,610.8081 354.6708,611.8862 Q353.9833,612.9487 353.9833,615.0425 Q353.9833,617.1362 354.6708,618.2144 Q355.3583,619.2769 356.702,619.2769 Q357.327,619.2769 357.9208,619.0112 Q358.5145,618.73 359.1395,618.1519 L359.1395,620.8706 Z " fill="#000000"/><text fill="#000000" font-family="sans-serif" font-size="14" lengthAdjust="spacing" textLength="105.1504" x="373.0598" y="620.0767">teacher_profile</text><line style="stroke:#181818;stroke-width:0.5;" x1="329.17" x2="493.211" y1="631.23" y2="631.23"/><g data-visibility-modifier="PUBLIC_FIELD"><ellipse cx="339.17" cy="644.8784" fill="none" rx="3" ry="3" style="stroke:#038048;stroke-width:1;"/></g><text fill="#000000" font-family="sans-serif" font-size="14" lengthAdjust="spacing" textLength="61.8584" x="348.17" y="648.2251">id: bigint</text><g data-visibility-modifier="PUBLIC_FIELD"><ellipse cx="339.17" cy="661.1753" fill="none" rx="3" ry="3" style="stroke:#038048;stroke-width:1;"/></g><text fill="#000000" font-family="sans-serif" font-size="14" lengthAdjust="spacing" textLength="99.3945" x="348.17" y="664.522">user_id: bigint</text><line style="stroke:#181818;stroke-width:0.5;" x1="329.17" x2="493.211" y1="671.8237" y2="671.8237"/><g data-visibility-modifier="PUBLIC_METHOD"><ellipse cx="339.17" cy="685.4722" fill="#84BE84" rx="3" ry="3" style="stroke:#038048;stroke-width:1;"/></g><text fill="#000000" font-family="sans-serif" font-size="14" lengthAdjust="spacing" textLength="140.041" x="348.17" y="688.8189">name: varchar(256)</text></g><!--class course--><g class="entity" data-entity="course" data-source-line="29" data-uid="ent0006" id="entity_course"><rect fill="#F1F1F1" height="96.8906" rx="2.5" ry="2.5" style="stroke:#181818;stroke-width:0.5;" width="166.041" x="106.17" y="599.23"/><ellipse cx="161.5411" cy="615.23" fill="#ADD1B2" rx="11" ry="11" style="stroke:#181818;stroke-width:1;"/><path d="M164.5098,620.8706 Q163.9317,621.1675 163.2911,621.3081 Q162.6505,621.4644 161.9473,621.4644 Q159.4473,621.4644 158.1192,619.8237 Q156.8067,618.1675 156.8067,615.0425 Q156.8067,611.9175 158.1192,610.2612 Q159.4473,608.605 161.9473,608.605 Q162.6505,608.605 163.2911,608.7612 Q163.9473,608.9175 164.5098,609.2144 L164.5098,611.9331 Q163.8848,611.355 163.2911,611.0894 Q162.6973,610.8081 162.0723,610.8081 Q160.7286,610.8081 160.0411,611.8862 Q159.3536,612.9487 159.3536,615.0425 Q159.3536,617.1362 160.0411,618.2144 Q160.7286,619.2769 162.0723,619.2769 Q162.6973,619.2769 163.2911,619.0112 Q163.8848,618.73 164.5098,618.1519 L164.5098,620.8706 Z " fill="#000000"/><text fill="#000000" font-family="sans-serif" font-size="14" lengthAdjust="spacing" textLength="46.7988" x="182.0411" y="620.0767">course</text><line style="stroke:#181818;stroke-width:0.5;" x1="107.17" x2="271.211" y1="631.23" y2="631.23"/><g data-visibility-modifier="PUBLIC_FIELD"><ellipse cx="117.17" cy="644.8784" fill="none" rx="3" ry="3" style="stroke:#038048;stroke-width:1;"/></g><text fill="#000000" font-family="sans-serif" font-size="14" lengthAdjust="spacing" textLength="61.8584" x="126.17" y="648.2251">id: bigint</text><line style="stroke:#181818;stroke-width:0.5;" x1="107.17" x2="271.211" y1="655.5269" y2="655.5269"/><g data-visibility-modifier="PUBLIC_METHOD"><ellipse cx="117.17" cy="669.1753" fill="#84BE84" rx="3" ry="3" style="stroke:#038048;stroke-width:1;"/></g><text fill="#000000" font-family="sans-serif" font-size="14" lengthAdjust="spacing" textLength="140.041" x="126.17" y="672.522">name: varchar(200)</text><g data-visibility-modifier="PUBLIC_METHOD"><ellipse cx="117.17" cy="685.4722" fill="#84BE84" rx="3" ry="3" style="stroke:#038048;stroke-width:1;"/></g><text fill="#000000" font-family="sans-serif" font-size="14" lengthAdjust="spacing" textLength="125.1934" x="126.17" y="688.8189">code: varchar(50)</text></g><!--class class_session--><g class="entity" data-entity="class_session" data-source-line="35" data-uid="ent0007" id="entity_class_session"><rect fill="#F1F1F1" height="194.6719" rx="2.5" ry="2.5" style="stroke:#181818;stroke-width:0.5;" width="200.2344" x="434.07" y="311.26"/><ellipse cx="483.1486" cy="327.26" fill="#ADD1B2" rx="11" ry="11" style="stroke:#181818;stroke-width:1;"/><path d="M486.1174,332.9006 Q485.5392,333.1975 484.8986,333.3381 Q484.258,333.4944 483.5549,333.4944 Q481.0549,333.4944 479.7267,331.8537 Q478.4142,330.1975 478.4142,327.0725 Q478.4142,323.9475 479.7267,322.2912 Q481.0549,320.635 483.5549,320.635 Q484.258,320.635 484.8986,320.7912 Q485.5549,320.9475 486.1174,321.2444 L486.1174,323.9631 Q485.4924,323.385 484.8986,323.1194 Q484.3049,322.8381 483.6799,322.8381 Q482.3361,322.8381 481.6486,323.9162 Q480.9611,324.9787 480.9611,327.0725 Q480.9611,329.1662 481.6486,330.2444 Q482.3361,331.3069 483.6799,331.3069 Q484.3049,331.3069 484.8986,331.0412 Q485.4924,330.76 486.1174,330.1819 L486.1174,332.9006 Z " fill="#000000"/><text fill="#000000" font-family="sans-serif" font-size="14" lengthAdjust="spacing" textLength="93.5771" x="503.6486" y="332.1067">class_session</text><line style="stroke:#181818;stroke-width:0.5;" x1="435.07" x2="633.3044" y1="343.26" y2="343.26"/><g data-visibility-modifier="PUBLIC_FIELD"><ellipse cx="445.07" cy="356.9084" fill="none" rx="3" ry="3" style="stroke:#038048;stroke-width:1;"/></g><text fill="#000000" font-family="sans-serif" font-size="14" lengthAdjust="spacing" textLength="61.8584" x="454.07" y="360.2551">id: bigint</text><g data-visibility-modifier="PUBLIC_FIELD"><ellipse cx="445.07" cy="373.2053" fill="none" rx="3" ry="3" style="stroke:#038048;stroke-width:1;"/></g><text fill="#000000" font-family="sans-serif" font-size="14" lengthAdjust="spacing" textLength="122.4795" x="454.07" y="376.552">teacher_id: bigint</text><g data-visibility-modifier="PUBLIC_FIELD"><ellipse cx="445.07" cy="389.5022" fill="none" rx="3" ry="3" style="stroke:#038048;stroke-width:1;"/></g><text fill="#000000" font-family="sans-serif" font-size="14" lengthAdjust="spacing" textLength="115.6572" x="454.07" y="392.8489">course_id: bigint</text><g data-visibility-modifier="PUBLIC_FIELD"><ellipse cx="445.07" cy="405.7991" fill="none" rx="3" ry="3" style="stroke:#038048;stroke-width:1;"/></g><text fill="#000000" font-family="sans-serif" font-size="14" lengthAdjust="spacing" textLength="79.3379" x="454.07" y="409.1457">token: uuid</text><g data-visibility-modifier="PUBLIC_FIELD"><ellipse cx="445.07" cy="422.0959" fill="none" rx="3" ry="3" style="stroke:#038048;stroke-width:1;"/></g><text fill="#000000" font-family="sans-serif" font-size="14" lengthAdjust="spacing" textLength="124.4072" x="454.07" y="425.4426">location_id: bigint</text><g data-visibility-modifier="PUBLIC_FIELD"><ellipse cx="445.07" cy="438.3928" fill="none" rx="3" ry="3" style="stroke:#038048;stroke-width:1;"/></g><text fill="#000000" font-family="sans-serif" font-size="14" lengthAdjust="spacing" textLength="72.3037" x="454.07" y="441.7395">date: date</text><g data-visibility-modifier="PUBLIC_FIELD"><ellipse cx="445.07" cy="454.6897" fill="none" rx="3" ry="3" style="stroke:#038048;stroke-width:1;"/></g><text fill="#000000" font-family="sans-serif" font-size="14" lengthAdjust="spacing" textLength="159.3867" x="454.07" y="458.0364">created_at: timestamp</text><line style="stroke:#181818;stroke-width:0.5;" x1="435.07" x2="633.3044" y1="465.3381" y2="465.3381"/><g data-visibility-modifier="PUBLIC_METHOD"><ellipse cx="445.07" cy="478.9866" fill="#84BE84" rx="3" ry="3" style="stroke:#038048;stroke-width:1;"/></g><text fill="#000000" font-family="sans-serif" font-size="14" lengthAdjust="spacing" textLength="148.2988" x="454.07" y="482.3332">timeslot: varchar(20)</text><g data-visibility-modifier="PUBLIC_METHOD"><ellipse cx="445.07" cy="495.2834" fill="#84BE84" rx="3" ry="3" style="stroke:#038048;stroke-width:1;"/></g><text fill="#000000" font-family="sans-serif" font-size="14" lengthAdjust="spacing" textLength="174.2344" x="454.07" y="498.6301">lesson_type: varchar(80)</text></g><!--class attendance--><g class="entity" data-entity="attendance" data-source-line="47" data-uid="ent0008" id="entity_attendance"><rect fill="#F1F1F1" height="227.2656" rx="2.5" ry="2.5" style="stroke:#181818;stroke-width:0.5;" width="205.5801" x="431.4" y="7"/><ellipse cx="490.0934" cy="23" fill="#ADD1B2" rx="11" ry="11" style="stroke:#181818;stroke-width:1;"/><path d="M493.0621,28.6406 Q492.484,28.9375 491.8434,29.0781 Q491.2027,29.2344 490.4996,29.2344 Q487.9996,29.2344 486.6715,27.5938 Q485.359,25.9375 485.359,22.8125 Q485.359,19.6875 486.6715,18.0313 Q487.9996,16.375 490.4996,16.375 Q491.2027,16.375 491.8434,16.5313 Q492.4996,16.6875 493.0621,16.9844 L493.0621,19.7031 Q492.4371,19.125 491.8434,18.8594 Q491.2496,18.5781 490.6246,18.5781 Q489.2809,18.5781 488.5934,19.6563 Q487.9059,20.7188 487.9059,22.8125 Q487.9059,24.9063 488.5934,25.9844 Q489.2809,27.0469 490.6246,27.0469 Q491.2496,27.0469 491.8434,26.7813 Q492.4371,26.5 493.0621,25.9219 L493.0621,28.6406 Z " fill="#000000"/><text fill="#000000" font-family="sans-serif" font-size="14" lengthAdjust="spacing" textLength="79.6934" x="510.5934" y="27.8467">attendance</text><line style="stroke:#181818;stroke-width:0.5;" x1="432.4" x2="635.9801" y1="39" y2="39"/><g data-visibility-modifier="PUBLIC_FIELD"><ellipse cx="442.4" cy="52.6484" fill="none" rx="3" ry="3" style="stroke:#038048;stroke-width:1;"/></g><text fill="#000000" font-family="sans-serif" font-size="14" lengthAdjust="spacing" textLength="61.8584" x="451.4" y="55.9951">id: bigint</text><g data-visibility-modifier="PUBLIC_FIELD"><ellipse cx="442.4" cy="68.9453" fill="none" rx="3" ry="3" style="stroke:#038048;stroke-width:1;"/></g><text fill="#000000" font-family="sans-serif" font-size="14" lengthAdjust="spacing" textLength="120.6816" x="451.4" y="72.292">session_id: bigint</text><g data-visibility-modifier="PUBLIC_FIELD"><ellipse cx="442.4" cy="85.2422" fill="none" rx="3" ry="3" style="stroke:#038048;stroke-width:1;"/></g><text fill="#000000" font-family="sans-serif" font-size="14" lengthAdjust="spacing" textLength="122.377" x="451.4" y="88.5889">student_id: bigint</text><g data-visibility-modifier="PUBLIC_FIELD"><ellipse cx="442.4" cy="101.5391" fill="none" rx="3" ry="3" style="stroke:#038048;stroke-width:1;"/></g><text fill="#000000" font-family="sans-serif" font-size="14" lengthAdjust="spacing" textLength="160.2002" x="451.4" y="104.8857">timestamp: timestamp</text><g data-visibility-modifier="PUBLIC_FIELD"><ellipse cx="442.4" cy="117.8359" fill="none" rx="3" ry="3" style="stroke:#038048;stroke-width:1;"/></g><text fill="#000000" font-family="sans-serif" font-size="14" lengthAdjust="spacing" textLength="74.8398" x="451.4" y="121.1826">lat: double</text><g data-visibility-modifier="PUBLIC_FIELD"><ellipse cx="442.4" cy="134.1328" fill="none" rx="3" ry="3" style="stroke:#038048;stroke-width:1;"/></g><text fill="#000000" font-family="sans-serif" font-size="14" lengthAdjust="spacing" textLength="78.21" x="451.4" y="137.4795">lon: double</text><g data-visibility-modifier="PUBLIC_FIELD"><ellipse cx="442.4" cy="150.4297" fill="none" rx="3" ry="3" style="stroke:#038048;stroke-width:1;"/></g><text fill="#000000" font-family="sans-serif" font-size="14" lengthAdjust="spacing" textLength="119.9023" x="451.4" y="153.7764">success: boolean</text><line style="stroke:#181818;stroke-width:0.5;" x1="432.4" x2="635.9801" y1="161.0781" y2="161.0781"/><g data-visibility-modifier="PUBLIC_METHOD"><ellipse cx="442.4" cy="174.7266" fill="#84BE84" rx="3" ry="3" style="stroke:#038048;stroke-width:1;"/></g><text fill="#000000" font-family="sans-serif" font-size="14" lengthAdjust="spacing" textLength="131.8789" x="451.4" y="178.0732">note: varchar(255)</text><g data-visibility-modifier="PUBLIC_METHOD"><ellipse cx="442.4" cy="191.0234" fill="#84BE84" rx="3" ry="3" style="stroke:#038048;stroke-width:1;"/></g><text fill="#000000" font-family="sans-serif" font-size="14" lengthAdjust="spacing" textLength="166.0996" x="451.4" y="194.3701">device_id: varchar(200)</text><g data-visibility-modifier="PUBLIC_METHOD"><ellipse cx="442.4" cy="207.3203" fill="#84BE84" rx="3" ry="3" style="stroke:#038048;stroke-width:1;"/></g><text fill="#000000" font-family="sans-serif" font-size="14" lengthAdjust="spacing" textLength="179.5801" x="451.4" y="210.667">device_info: varchar(512)</text><g data-visibility-modifier="PUBLIC_METHOD"><ellipse cx="442.4" cy="223.6172" fill="#84BE84" rx="3" ry="3" style="stroke:#038048;stroke-width:1;"/></g><text fill="#000000" font-family="sans-serif" font-size="14" lengthAdjust="spacing" textLength="134.4492" x="451.4" y="226.9639">status: varchar(50)</text></g><!--class enrollment--><g class="entity" data-entity="enrollment" data-source-line="61" data-uid="ent0009" id="entity_enrollment"><rect fill="#F1F1F1" height="96.8906" rx="2.5" ry="2.5" style="stroke:#181818;stroke-width:0.5;" width="148.377" x="7" y="72.18"/><ellipse cx="40.0795" cy="88.18" fill="#ADD1B2" rx="11" ry="11" style="stroke:#181818;stroke-width:1;"/><path d="M43.0483,93.8206 Q42.4702,94.1175 41.8295,94.2581 Q41.1889,94.4144 40.4858,94.4144 Q37.9858,94.4144 36.6577,92.7737 Q35.3452,91.1175 35.3452,87.9925 Q35.3452,84.8675 36.6577,83.2112 Q37.9858,81.555 40.4858,81.555 Q41.1889,81.555 41.8295,81.7112 Q42.4858,81.8675 43.0483,82.1644 L43.0483,84.8831 Q42.4233,84.305 41.8295,84.0394 Q41.2358,83.7581 40.6108,83.7581 Q39.267,83.7581 38.5795,84.8362 Q37.892,85.8987 37.892,87.9925 Q37.892,90.0862 38.5795,91.1644 Q39.267,92.2269 40.6108,92.2269 Q41.2358,92.2269 41.8295,91.9612 Q42.4233,91.68 43.0483,91.1019 L43.0483,93.8206 Z " fill="#000000"/><text fill="#000000" font-family="sans-serif" font-size="14" lengthAdjust="spacing" textLength="76.2002" x="58.0972" y="93.0267">enrollment</text><line style="stroke:#181818;stroke-width:0.5;" x1="8" x2="154.377" y1="104.18" y2="104.18"/><g data-visibility-modifier="PUBLIC_FIELD"><ellipse cx="18" cy="117.8284" fill="none" rx="3" ry="3" style="stroke:#038048;stroke-width:1;"/></g><text fill="#000000" font-family="sans-serif" font-size="14" lengthAdjust="spacing" textLength="61.8584" x="27" y="121.1751">id: bigint</text><g data-visibility-modifier="PUBLIC_FIELD"><ellipse cx="18" cy="134.1253" fill="none" rx="3" ry="3" style="stroke:#038048;stroke-width:1;"/></g><text fill="#000000" font-family="sans-serif" font-size="14" lengthAdjust="spacing" textLength="122.377" x="27" y="137.472">student_id: bigint</text><g data-visibility-modifier="PUBLIC_FIELD"><ellipse cx="18" cy="150.4222" fill="none" rx="3" ry="3" style="stroke:#038048;stroke-width:1;"/></g><text fill="#000000" font-family="sans-serif" font-size="14" lengthAdjust="spacing" textLength="115.6572" x="27" y="153.7689">course_id: bigint</text><line style="stroke:#181818;stroke-width:0.5;" x1="8" x2="154.377" y1="161.0706" y2="161.0706"/></g><!--class location--><g class="entity" data-entity="location" data-source-line="67" data-uid="ent0010" id="entity_location"><rect fill="#F1F1F1" height="129.4844" rx="2.5" ry="2.5" style="stroke:#181818;stroke-width:0.5;" width="166.041" x="529.17" y="582.93"/><ellipse cx="580.1661" cy="598.93" fill="#ADD1B2" rx="11" ry="11" style="stroke:#181818;stroke-width:1;"/><path d="M583.1348,604.5706 Q582.5567,604.8675 581.9161,605.0081 Q581.2755,605.1644 580.5723,605.1644 Q578.0723,605.1644 576.7442,603.5238 Q575.4317,601.8675 575.4317,598.7425 Q575.4317,595.6175 576.7442,593.9613 Q578.0723,592.305 580.5723,592.305 Q581.2755,592.305 581.9161,592.4613 Q582.5723,592.6175 583.1348,592.9144 L583.1348,595.6331 Q582.5098,595.055 581.9161,594.7894 Q581.3223,594.5081 580.6973,594.5081 Q579.3536,594.5081 578.6661,595.5863 Q577.9786,596.6488 577.9786,598.7425 Q577.9786,600.8363 578.6661,601.9144 Q579.3536,602.9769 580.6973,602.9769 Q581.3223,602.9769 581.9161,602.7113 Q582.5098,602.43 583.1348,601.8519 L583.1348,604.5706 Z " fill="#000000"/><text fill="#000000" font-family="sans-serif" font-size="14" lengthAdjust="spacing" textLength="55.5488" x="600.6661" y="603.7767">location</text><line style="stroke:#181818;stroke-width:0.5;" x1="530.17" x2="694.211" y1="614.93" y2="614.93"/><g data-visibility-modifier="PUBLIC_FIELD"><ellipse cx="540.17" cy="628.5784" fill="none" rx="3" ry="3" style="stroke:#038048;stroke-width:1;"/></g><text fill="#000000" font-family="sans-serif" font-size="14" lengthAdjust="spacing" textLength="61.8584" x="549.17" y="631.9251">id: bigint</text><g data-visibility-modifier="PUBLIC_FIELD"><ellipse cx="540.17" cy="644.8753" fill="none" rx="3" ry="3" style="stroke:#038048;stroke-width:1;"/></g><text fill="#000000" font-family="sans-serif" font-size="14" lengthAdjust="spacing" textLength="110.5918" x="549.17" y="648.222">latitude: double</text><g data-visibility-modifier="PUBLIC_FIELD"><ellipse cx="540.17" cy="661.1722" fill="none" rx="3" ry="3" style="stroke:#038048;stroke-width:1;"/></g><text fill="#000000" font-family="sans-serif" font-size="14" lengthAdjust="spacing" textLength="122.8486" x="549.17" y="664.5189">longitude: double</text><g data-visibility-modifier="PUBLIC_FIELD"><ellipse cx="540.17" cy="677.4691" fill="none" rx="3" ry="3" style="stroke:#038048;stroke-width:1;"/></g><text fill="#000000" font-family="sans-serif" font-size="14" lengthAdjust="spacing" textLength="91.335" x="549.17" y="680.8157">radius_m: int</text><line style="stroke:#181818;stroke-width:0.5;" x1="530.17" x2="694.211" y1="688.1175" y2="688.1175"/><g data-visibility-modifier="PUBLIC_METHOD"><ellipse cx="540.17" cy="701.7659" fill="#84BE84" rx="3" ry="3" style="stroke:#038048;stroke-width:1;"/></g><text fill="#000000" font-family="sans-serif" font-size="14" lengthAdjust="spacing" textLength="140.041" x="549.17" y="705.1126">name: varchar(100)</text></g><!--class device_registry--><g class="entity" data-entity="device_registry" data-source-line="75" data-uid="ent0011" id="entity_device_registry"><rect fill="#F1F1F1" height="129.4844" rx="2.5" ry="2.5" style="stroke:#181818;stroke-width:0.5;" width="205.5801" x="190.4" y="55.89"/><ellipse cx="235.4625" cy="71.89" fill="#ADD1B2" rx="11" ry="11" style="stroke:#181818;stroke-width:1;"/><path d="M238.4313,77.5306 Q237.8531,77.8275 237.2125,77.9681 Q236.5719,78.1244 235.8688,78.1244 Q233.3688,78.1244 232.0406,76.4837 Q230.7281,74.8275 230.7281,71.7025 Q230.7281,68.5775 232.0406,66.9212 Q233.3688,65.265 235.8688,65.265 Q236.5719,65.265 237.2125,65.4212 Q237.8688,65.5775 238.4313,65.8744 L238.4313,68.5931 Q237.8063,68.015 237.2125,67.7494 Q236.6188,67.4681 235.9938,67.4681 Q234.65,67.4681 233.9625,68.5462 Q233.275,69.6087 233.275,71.7025 Q233.275,73.7962 233.9625,74.8744 Q234.65,75.9369 235.9938,75.9369 Q236.6188,75.9369 237.2125,75.6712 Q237.8063,75.39 238.4313,74.8119 L238.4313,77.5306 Z " fill="#000000"/><text fill="#000000" font-family="sans-serif" font-size="14" lengthAdjust="spacing" textLength="106.9551" x="255.9625" y="76.7367">device_registry</text><line style="stroke:#181818;stroke-width:0.5;" x1="191.4" x2="394.9801" y1="87.89" y2="87.89"/><g data-visibility-modifier="PUBLIC_FIELD"><ellipse cx="201.4" cy="101.5384" fill="none" rx="3" ry="3" style="stroke:#038048;stroke-width:1;"/></g><text fill="#000000" font-family="sans-serif" font-size="14" lengthAdjust="spacing" textLength="61.8584" x="210.4" y="104.8851">id: bigint</text><g data-visibility-modifier="PUBLIC_FIELD"><ellipse cx="201.4" cy="117.8353" fill="none" rx="3" ry="3" style="stroke:#038048;stroke-width:1;"/></g><text fill="#000000" font-family="sans-serif" font-size="14" lengthAdjust="spacing" textLength="122.377" x="210.4" y="121.182">student_id: bigint</text><g data-visibility-modifier="PUBLIC_FIELD"><ellipse cx="201.4" cy="134.1322" fill="none" rx="3" ry="3" style="stroke:#038048;stroke-width:1;"/></g><text fill="#000000" font-family="sans-serif" font-size="14" lengthAdjust="spacing" textLength="159.3867" x="210.4" y="137.4789">created_at: timestamp</text><line style="stroke:#181818;stroke-width:0.5;" x1="191.4" x2="394.9801" y1="144.7806" y2="144.7806"/><g data-visibility-modifier="PUBLIC_METHOD"><ellipse cx="201.4" cy="158.4291" fill="#84BE84" rx="3" ry="3" style="stroke:#038048;stroke-width:1;"/></g><text fill="#000000" font-family="sans-serif" font-size="14" lengthAdjust="spacing" textLength="166.0996" x="210.4" y="161.7757">device_id: varchar(200)</text><g data-visibility-modifier="PUBLIC_METHOD"><ellipse cx="201.4" cy="174.7259" fill="#84BE84" rx="3" ry="3" style="stroke:#038048;stroke-width:1;"/></g><text fill="#000000" font-family="sans-serif" font-size="14" lengthAdjust="spacing" textLength="179.5801" x="210.4" y="178.0726">device_info: varchar(512)</text></g><!--class ref_constant--><g class="entity" data-entity="ref_constant" data-source-line="83" data-uid="ent0012" id="entity_ref_constant"><rect fill="#F1F1F1" height="145.7813" rx="2.5" ry="2.5" style="stroke:#181818;stroke-width:0.5;" width="166.041" x="672.17" y="47.74"/><ellipse cx="708.2673" cy="63.74" fill="#ADD1B2" rx="11" ry="11" style="stroke:#181818;stroke-width:1;"/><path d="M711.236,69.3806 Q710.6579,69.6775 710.0173,69.8181 Q709.3766,69.9744 708.6735,69.9744 Q706.1735,69.9744 704.8454,68.3338 Q703.5329,66.6775 703.5329,63.5525 Q703.5329,60.4275 704.8454,58.7713 Q706.1735,57.115 708.6735,57.115 Q709.3766,57.115 710.0173,57.2713 Q710.6735,57.4275 711.236,57.7244 L711.236,60.4431 Q710.611,59.865 710.0173,59.5994 Q709.4235,59.3181 708.7985,59.3181 Q707.4548,59.3181 706.7673,60.3963 Q706.0798,61.4588 706.0798,63.5525 Q706.0798,65.6463 706.7673,66.7244 Q707.4548,67.7869 708.7985,67.7869 Q709.4235,67.7869 710.0173,67.5213 Q710.611,67.24 711.236,66.6619 L711.236,69.3806 Z " fill="#000000"/><text fill="#000000" font-family="sans-serif" font-size="14" lengthAdjust="spacing" textLength="87.1582" x="726.9555" y="68.5867">ref_constant</text><line style="stroke:#181818;stroke-width:0.5;" x1="673.17" x2="837.211" y1="79.74" y2="79.74"/><g data-visibility-modifier="PUBLIC_FIELD"><ellipse cx="683.17" cy="93.3884" fill="none" rx="3" ry="3" style="stroke:#038048;stroke-width:1;"/></g><text fill="#000000" font-family="sans-serif" font-size="14" lengthAdjust="spacing" textLength="61.8584" x="692.17" y="96.7351">id: bigint</text><g data-visibility-modifier="PUBLIC_FIELD"><ellipse cx="683.17" cy="109.6853" fill="none" rx="3" ry="3" style="stroke:#038048;stroke-width:1;"/></g><text fill="#000000" font-family="sans-serif" font-size="14" lengthAdjust="spacing" textLength="112.0342" x="692.17" y="113.032">start_time: time</text><g data-visibility-modifier="PUBLIC_FIELD"><ellipse cx="683.17" cy="125.9822" fill="none" rx="3" ry="3" style="stroke:#038048;stroke-width:1;"/></g><text fill="#000000" font-family="sans-serif" font-size="14" lengthAdjust="spacing" textLength="105.7998" x="692.17" y="129.3289">end_time: time</text><line style="stroke:#181818;stroke-width:0.5;" x1="673.17" x2="837.211" y1="136.6306" y2="136.6306"/><g data-visibility-modifier="PUBLIC_METHOD"><ellipse cx="683.17" cy="150.2791" fill="#84BE84" rx="3" ry="3" style="stroke:#038048;stroke-width:1;"/></g><text fill="#000000" font-family="sans-serif" font-size="14" lengthAdjust="spacing" textLength="122.7051" x="692.17" y="153.6257">type: varchar(80)</text><g data-visibility-modifier="PUBLIC_METHOD"><ellipse cx="683.17" cy="166.5759" fill="#84BE84" rx="3" ry="3" style="stroke:#038048;stroke-width:1;"/></g><text fill="#000000" font-family="sans-serif" font-size="14" lengthAdjust="spacing" textLength="140.041" x="692.17" y="169.9226">name: varchar(200)</text><g data-visibility-modifier="PUBLIC_METHOD"><ellipse cx="683.17" cy="182.8728" fill="#84BE84" rx="3" ry="3" style="stroke:#038048;stroke-width:1;"/></g><text fill="#000000" font-family="sans-serif" font-size="14" lengthAdjust="spacing" textLength="138.5781" x="692.17" y="186.2195">value: varchar(200)</text></g><!--link app_user to ref_role--><g class="link" data-entity-1="app_user" data-entity-2="ref_role" data-source-line="93" data-uid="lnk13" id="link_app_user_ref_role"><path codeLine="93" d="M411.19,951.88 C411.19,978.14 411.19,1000.16 411.19,1022.07" fill="none" id="app_user-to-ref_role" style="stroke:#181818;stroke-width:1;"/><polygon fill="#181818" points="411.19,1028.07,415.19,1019.07,411.19,1023.07,407.19,1019.07,411.19,1028.07" style="stroke:#181818;stroke-width:1;"/><text fill="#000000" font-family="sans-serif" font-size="13" lengthAdjust="spacing" textLength="43.272" x="412.19" y="994.5669">role_id</text></g><!--link teacher_profile to app_user--><g class="link" data-entity-1="teacher_profile" data-entity-2="app_user" data-source-line="94" data-uid="lnk14" id="link_teacher_profile_app_user"><path codeLine="94" d="M411.19,696.58 C411.19,723.6 411.19,752.05 411.19,783.08" fill="none" id="teacher_profile-to-app_user" style="stroke:#181818;stroke-width:1;"/><polygon fill="#181818" points="411.19,789.08,415.19,780.08,411.19,784.08,407.19,780.08,411.19,789.08" style="stroke:#181818;stroke-width:1;"/><text fill="#000000" font-family="sans-serif" font-size="13" lengthAdjust="spacing" textLength="46.7188" x="412.19" y="755.4869">user_id</text></g><!--link class_session to teacher_profile--><g class="link" data-entity-1="class_session" data-entity-2="teacher_profile" data-source-line="95" data-uid="lnk15" id="link_class_session_teacher_profile"><path codeLine="95" d="M483.98,506.37 C467.44,538.25 452.534,566.9845 438.744,593.5545" fill="none" id="class_session-to-teacher_profile" style="stroke:#181818;stroke-width:1;"/><polygon fill="#181818" points="435.98,598.88,443.6762,592.7344,438.2833,594.4421,436.5756,589.0492,435.98,598.88" style="stroke:#181818;stroke-width:1;"/><text fill="#000000" font-family="sans-serif" font-size="13" lengthAdjust="spacing" textLength="68.1548" x="467.19" y="548.9969">teacher_id</text></g><!--link class_session to course--><g class="link" data-entity-1="class_session" data-entity-2="course" data-source-line="96" data-uid="lnk16" id="link_class_session_course"><path codeLine="96" d="M433.8,492.99 C427.9,497.44 422,501.79 416.19,505.93 C369.86,539 320.921,569.6331 277.161,595.7731" fill="none" id="class_session-to-course" style="stroke:#181818;stroke-width:1;"/><polygon fill="#181818" points="272.01,598.85,281.7877,597.6686,276.3025,596.2859,277.6852,590.8006,272.01,598.85" style="stroke:#181818;stroke-width:1;"/><text fill="#000000" font-family="sans-serif" font-size="13" lengthAdjust="spacing" textLength="61.8198" x="369.19" y="548.9969">course_id</text></g><!--link class_session to location--><g class="link" data-entity-1="class_session" data-entity-2="location" data-source-line="97" data-uid="lnk17" id="link_class_session_location"><path codeLine="97" d="M566.03,506.37 C574.49,532.1 581.5545,553.5607 589.2845,577.0507" fill="none" id="class_session-to-location" style="stroke:#181818;stroke-width:1;"/><polygon fill="#181818" points="591.16,582.75,592.1463,572.9507,589.5971,578.0006,584.5472,575.4513,591.16,582.75" style="stroke:#181818;stroke-width:1;"/><text fill="#000000" font-family="sans-serif" font-size="13" lengthAdjust="spacing" textLength="69.9448" x="580.19" y="548.9969">location_id</text></g><!--link attendance to class_session--><g class="link" data-entity-1="attendance" data-entity-2="class_session" data-source-line="98" data-uid="lnk18" id="link_attendance_class_session"><path codeLine="98" d="M534.19,234.65 C534.19,259.94 534.19,280.54 534.19,305.09" fill="none" id="attendance-to-class_session" style="stroke:#181818;stroke-width:1;"/><polygon fill="#181818" points="534.19,311.09,538.19,302.09,534.19,306.09,530.19,302.09,534.19,311.09" style="stroke:#181818;stroke-width:1;"/><text fill="#000000" font-family="sans-serif" font-size="13" lengthAdjust="spacing" textLength="66.4854" x="535.19" y="277.3269">session_id</text></g><!--link attendance to student--><g class="link" data-entity-1="attendance" data-entity-2="student" data-source-line="99" data-uid="lnk19" id="link_attendance_student"><path codeLine="99" d="M438.94,234.65 C402.23,278.21 366.1167,321.0621 337.3267,355.2221" fill="none" id="attendance-to-student" style="stroke:#181818;stroke-width:1;"/><polygon fill="#181818" points="333.46,359.81,342.3186,355.5059,336.6822,355.9868,336.2014,350.3504,333.46,359.81" style="stroke:#181818;stroke-width:1;"/><text fill="#000000" font-family="sans-serif" font-size="13" lengthAdjust="spacing" textLength="68.0596" x="415.19" y="277.3269">student_id</text></g><!--link enrollment to student--><g class="link" data-entity-1="enrollment" data-entity-2="student" data-source-line="100" data-uid="lnk20" id="link_enrollment_student"><path codeLine="100" d="M116.67,169.49 C155.92,222.44 215.2168,302.42 254.3668,355.23" fill="none" id="enrollment-to-student" style="stroke:#181818;stroke-width:1;"/><polygon fill="#181818" points="257.94,360.05,255.7935,350.4379,254.9623,356.0334,249.3669,355.2022,257.94,360.05" style="stroke:#181818;stroke-width:1;"/><text fill="#000000" font-family="sans-serif" font-size="13" lengthAdjust="spacing" textLength="68.0596" x="195.19" y="277.3269">student_id</text></g><!--link enrollment to course--><g class="link" data-entity-1="enrollment" data-entity-2="course" data-source-line="101" data-uid="lnk21" id="link_enrollment_course"><path codeLine="101" d="M77.56,169.32 C73.44,243.23 71.36,389.1 107.19,505.93 C117.34,539.05 133.2482,567.6968 150.5182,593.7868" fill="none" id="enrollment-to-course" style="stroke:#181818;stroke-width:1;"/><polygon fill="#181818" points="153.83,598.79,152.1977,589.0773,151.0702,594.6207,145.5268,593.4931,153.83,598.79" style="stroke:#181818;stroke-width:1;"/><text fill="#000000" font-family="sans-serif" font-size="13" lengthAdjust="spacing" textLength="61.8198" x="108.19" y="413.1669">course_id</text></g><!--link device_registry to student--><g class="link" data-entity-1="device_registry" data-entity-2="student" data-source-line="102" data-uid="lnk22" id="link_device_registry_student"><path codeLine="102" d="M293.19,185.81 C293.19,238.67 293.19,306.42 293.19,354.1" fill="none" id="device_registry-to-student" style="stroke:#181818;stroke-width:1;"/><polygon fill="#181818" points="293.19,360.1,297.19,351.1,293.19,355.1,289.19,351.1,293.19,360.1" style="stroke:#181818;stroke-width:1;"/><text fill="#000000" font-family="sans-serif" font-size="13" lengthAdjust="spacing" textLength="68.0596" x="294.19" y="277.3269">student_id</text></g><!--SRC=[fLNRYXin37sVhz3RRYWBcy2MueT-HEcxKMnDOjPZ3xwaXD9_hpttwsvAyp1X95a-HphIFC5FF6loW1w4Hk_95yq_O5tpwCd1xmBIxukI3Cxgeanetwb2fHdSq8ahkkVZs-kXTJYhYI-ZbUStSgfKb1qsXQ0PF6SqPcKNZZ2Gv1WO15MH3rZLhUkA_feyTOBvopevWZXb47-AZe6ZacSmUmmCLZIUdHtr8KeoOUzav-R2oaM6nbr6hVay- -brcZuGYYivNZjRgds0kVpyOzIdjw-JlC96vn_aso1gAxrYCIRCJvv4uPKrUtbxDajxYsPb3lQT38CObMmDsWeCAVygKYO1CCZFJoNHl6eRflmwUadTFYKFzth2yjkK9OP0Hg8HkwNhAi3tXB3YsADR0TKPlBGn3LtFtimDFWgHhbkCWx5XrlQtZfsacn9jaTUTxPscj9C67q-77Zs6w7TQJoRDZguUc8BF-puaxLlzc4IF0v5KDPLlMvNkic5sA5Nql68mkxihXgEByi7T_vNL_nHwMxYpHIMiITRzOg_b- -5Ctr37JKUwn0MUGRHGkcLkvDIMa3t13z9Dh_nLrHwUI-j8NGoyqzqVYk7hyFBoVLoq3BhbNomtN0uRpgJXRpTRCTylEMXvaC6uNZR2kut7O13THj2WEWQJNLDCnhv9DJl7O9pvPMJ_TM0mYgMOpCkZCHlWboBTI_KN]--></g></svg>