<svg xmlns="http://www.w3.org/2000/svg" xmlns:xlink="http://www.w3.org/1999/xlink" contentStyleType="text/css" data-diagram-type="CLASS" height="1116px" preserveAspectRatio="none" style="width:1073px;height:1116px;background:#FFFFFF;" version="1.1" viewBox="0 0 1073 1116" width="1073px" zoomAndPan="magnify"><defs/><g><!--class ?????????--><g class="entity" data-entity="........." data-source-line="2" data-uid="ent0002" id="entity_........."><rect fill="#F1F1F1" height="162.0781" rx="2.5" ry="2.5" style="stroke:#181818;stroke-width:0.5;" width="274.3838" x="407.43" y="789.42"/><ellipse cx="503.6424" cy="805.42" fill="#ADD1B2" rx="11" ry="11" style="stroke:#181818;stroke-width:1;"/><path d="M506.6112,811.0606 Q506.033,811.3575 505.3924,811.4981 Q504.7518,811.6544 504.0487,811.6544 Q501.5487,811.6544 500.2205,810.0137 Q498.908,808.3575 498.908,805.2325 Q498.908,802.1075 500.2205,800.4512 Q501.5487,798.795 504.0487,798.795 Q504.7518,798.795 505.3924,798.9512 Q506.0487,799.1075 506.6112,799.4044 L506.6112,802.1231 Q505.9862,801.545 505.3924,801.2794 Q504.7987,800.9981 504.1737,800.9981 Q502.8299,800.9981 502.1424,802.0762 Q501.4549,803.1387 501.4549,805.2325 Q501.4549,807.3262 502.1424,808.4044 Q502.8299,809.4669 504.1737,809.4669 Q504.7987,809.4669 505.3924,809.2012 Q505.9862,808.92 506.6112,808.3419 L506.6112,811.0606 Z " fill="#000000"/><text fill="#000000" font-family="sans-serif" font-size="14" lengthAdjust="spacing" textLength="73.459" x="524.1424" y="810.2667">&#1061;&#1101;&#1088;&#1101;&#1075;&#1083;&#1101;&#1075;&#1095;</text><line style="stroke:#181818;stroke-width:0.5;" x1="408.43" x2="680.8138" y1="821.42" y2="821.42"/><g data-visibility-modifier="PUBLIC_FIELD"><ellipse cx="418.43" cy="835.0684" fill="none" rx="3" ry="3" style="stroke:#038048;stroke-width:1;"/></g><text fill="#000000" font-family="sans-serif" font-size="14" lengthAdjust="spacing" textLength="77.2666" x="427.43" y="838.4151">&#1050;&#1086;&#1076;: bigint</text><g data-visibility-modifier="PUBLIC_FIELD"><ellipse cx="418.43" cy="851.3653" fill="none" rx="3" ry="3" style="stroke:#038048;stroke-width:1;"/></g><text fill="#000000" font-family="sans-serif" font-size="14" lengthAdjust="spacing" textLength="76.0293" x="427.43" y="854.712">&#1069;&#1088;&#1093;: bigint</text><g data-visibility-modifier="PUBLIC_FIELD"><ellipse cx="418.43" cy="867.6622" fill="none" rx="3" ry="3" style="stroke:#038048;stroke-width:1;"/></g><text fill="#000000" font-family="sans-serif" font-size="14" lengthAdjust="spacing" textLength="195.1318" x="427.43" y="871.0089">&#1041;&#1072;&#1090;&#1072;&#1083;&#1075;&#1072;&#1072;&#1078;&#1089;&#1072;&#1085;_&#1199;&#1199;: boolean</text><g data-visibility-modifier="PUBLIC_FIELD"><ellipse cx="418.43" cy="883.9591" fill="none" rx="3" ry="3" style="stroke:#038048;stroke-width:1;"/></g><text fill="#000000" font-family="sans-serif" font-size="14" lengthAdjust="spacing" textLength="192.1719" x="427.43" y="887.3057">&#1061;&#1086;&#1088;&#1080;&#1075;&#1083;&#1086;&#1075;&#1076;&#1089;&#1086;&#1085;_&#1199;&#1199;: boolean</text><g data-visibility-modifier="PUBLIC_FIELD"><ellipse cx="418.43" cy="900.2559" fill="none" rx="3" ry="3" style="stroke:#038048;stroke-width:1;"/></g><text fill="#000000" font-family="sans-serif" font-size="14" lengthAdjust="spacing" textLength="208.3936" x="427.43" y="903.6026">&#1041;&#1199;&#1088;&#1090;&#1075;&#1101;&#1089;&#1101;&#1085;_&#1086;&#1075;&#1085;&#1086;&#1086;: timestamp</text><line style="stroke:#181818;stroke-width:0.5;" x1="408.43" x2="680.8138" y1="910.9044" y2="910.9044"/><g data-visibility-modifier="PUBLIC_METHOD"><ellipse cx="418.43" cy="924.5528" fill="#84BE84" rx="3" ry="3" style="stroke:#038048;stroke-width:1;"/></g><text fill="#000000" font-family="sans-serif" font-size="14" lengthAdjust="spacing" textLength="152.1543" x="427.43" y="927.8995">&#1048;-&#1084;&#1101;&#1081;&#1083;: varchar(150)</text><g data-visibility-modifier="PUBLIC_METHOD"><ellipse cx="418.43" cy="940.8497" fill="#84BE84" rx="3" ry="3" style="stroke:#038048;stroke-width:1;"/></g><text fill="#000000" font-family="sans-serif" font-size="14" lengthAdjust="spacing" textLength="248.3838" x="427.43" y="944.1964">&#1053;&#1091;&#1091;&#1094;_&#1090;&#1086;&#1076;&#1086;&#1088;&#1093;&#1086;&#1081;&#1083;&#1086;&#1083;&#1090;: varchar(250)</text></g><!--class ??????_???????--><g class="entity" data-entity="......_......." data-source-line="12" data-uid="ent0003" id="entity_......_......."><rect fill="#F1F1F1" height="80.5938" rx="2.5" ry="2.5" style="stroke:#181818;stroke-width:0.5;" width="154.5752" x="467.33" y="1028.5"/><ellipse cx="482.33" cy="1044.5" fill="#ADD1B2" rx="11" ry="11" style="stroke:#181818;stroke-width:1;"/><path d="M485.2988,1050.1406 Q484.7206,1050.4375 484.08,1050.5781 Q483.4394,1050.7344 482.7363,1050.7344 Q480.2363,1050.7344 478.9081,1049.0938 Q477.5956,1047.4375 477.5956,1044.3125 Q477.5956,1041.1875 478.9081,1039.5313 Q480.2363,1037.875 482.7363,1037.875 Q483.4394,1037.875 484.08,1038.0313 Q484.7363,1038.1875 485.2988,1038.4844 L485.2988,1041.2031 Q484.6738,1040.625 484.08,1040.3594 Q483.4863,1040.0781 482.8613,1040.0781 Q481.5175,1040.0781 480.83,1041.1563 Q480.1425,1042.2188 480.1425,1044.3125 Q480.1425,1046.4063 480.83,1047.4844 Q481.5175,1048.5469 482.8613,1048.5469 Q483.4863,1048.5469 484.08,1048.2813 Q484.6738,1048 485.2988,1047.4219 L485.2988,1050.1406 Z " fill="#000000"/><text fill="#000000" font-family="sans-serif" font-size="14" lengthAdjust="spacing" textLength="122.5752" x="496.33" y="1049.3467">&#1069;&#1088;&#1093;&#1080;&#1081;&#1085;_&#1058;&#1072;&#1081;&#1083;&#1073;&#1072;&#1088;</text><line style="stroke:#181818;stroke-width:0.5;" x1="468.33" x2="620.9052" y1="1060.5" y2="1060.5"/><g data-visibility-modifier="PUBLIC_FIELD"><ellipse cx="478.33" cy="1074.1484" fill="none" rx="3" ry="3" style="stroke:#038048;stroke-width:1;"/></g><text fill="#000000" font-family="sans-serif" font-size="14" lengthAdjust="spacing" textLength="77.2666" x="487.33" y="1077.4951">&#1050;&#1086;&#1076;: bigint</text><line style="stroke:#181818;stroke-width:0.5;" x1="468.33" x2="620.9052" y1="1084.7969" y2="1084.7969"/><g data-visibility-modifier="PUBLIC_METHOD"><ellipse cx="478.33" cy="1098.4453" fill="#84BE84" rx="3" ry="3" style="stroke:#038048;stroke-width:1;"/></g><text fill="#000000" font-family="sans-serif" font-size="14" lengthAdjust="spacing" textLength="118.5283" x="487.33" y="1101.792">&#1053;&#1101;&#1088;: varchar(50)</text></g><!--class ??????--><g class="entity" data-entity="......" data-source-line="17" data-uid="ent0004" id="entity_......"><rect fill="#F1F1F1" height="96.8906" rx="2.5" ry="2.5" style="stroke:#181818;stroke-width:0.5;" width="210.584" x="260.33" y="360.15"/><ellipse cx="332.8832" cy="376.15" fill="#ADD1B2" rx="11" ry="11" style="stroke:#181818;stroke-width:1;"/><path d="M335.852,381.7906 Q335.2738,382.0875 334.6332,382.2281 Q333.9926,382.3844 333.2895,382.3844 Q330.7895,382.3844 329.4613,380.7437 Q328.1488,379.0875 328.1488,375.9625 Q328.1488,372.8375 329.4613,371.1812 Q330.7895,369.525 333.2895,369.525 Q333.9926,369.525 334.6332,369.6812 Q335.2895,369.8375 335.852,370.1344 L335.852,372.8531 Q335.227,372.275 334.6332,372.0094 Q334.0395,371.7281 333.4145,371.7281 Q332.0707,371.7281 331.3832,372.8062 Q330.6957,373.8687 330.6957,375.9625 Q330.6957,378.0562 331.3832,379.1344 Q332.0707,380.1969 333.4145,380.1969 Q334.0395,380.1969 334.6332,379.9312 Q335.227,379.65 335.852,379.0719 L335.852,381.7906 Z " fill="#000000"/><text fill="#000000" font-family="sans-serif" font-size="14" lengthAdjust="spacing" textLength="56.9775" x="353.3832" y="380.9967">&#1054;&#1102;&#1091;&#1090;&#1072;&#1085;</text><line style="stroke:#181818;stroke-width:0.5;" x1="261.33" x2="469.914" y1="392.15" y2="392.15"/><g data-visibility-modifier="PUBLIC_FIELD"><ellipse cx="271.33" cy="405.7984" fill="none" rx="3" ry="3" style="stroke:#038048;stroke-width:1;"/></g><text fill="#000000" font-family="sans-serif" font-size="14" lengthAdjust="spacing" textLength="77.2666" x="280.33" y="409.1451">&#1050;&#1086;&#1076;: bigint</text><line style="stroke:#181818;stroke-width:0.5;" x1="261.33" x2="469.914" y1="416.4469" y2="416.4469"/><g data-visibility-modifier="PUBLIC_METHOD"><ellipse cx="271.33" cy="430.0953" fill="#84BE84" rx="3" ry="3" style="stroke:#038048;stroke-width:1;"/></g><text fill="#000000" font-family="sans-serif" font-size="14" lengthAdjust="spacing" textLength="184.584" x="280.33" y="433.442">&#1054;&#1102;&#1091;&#1090;&#1085;&#1099;_&#1082;&#1086;&#1076;: varchar(50)</text><g data-visibility-modifier="PUBLIC_METHOD"><ellipse cx="271.33" cy="446.3922" fill="#84BE84" rx="3" ry="3" style="stroke:#038048;stroke-width:1;"/></g><text fill="#000000" font-family="sans-serif" font-size="14" lengthAdjust="spacing" textLength="175.9434" x="280.33" y="449.7389">&#1041;&#1199;&#1090;&#1101;&#1085;_&#1085;&#1101;&#1088;: varchar(200)</text></g><!--class ???????_???????--><g class="entity" data-entity="......._......." data-source-line="23" data-uid="ent0005" id="entity_......._......."><rect fill="#F1F1F1" height="96.8906" rx="2.5" ry="2.5" style="stroke:#181818;stroke-width:0.5;" width="183.7256" x="452.76" y="599.23"/><ellipse cx="473.3626" cy="615.23" fill="#ADD1B2" rx="11" ry="11" style="stroke:#181818;stroke-width:1;"/><path d="M476.3313,620.8706 Q475.7532,621.1675 475.1126,621.3081 Q474.472,621.4644 473.7688,621.4644 Q471.2688,621.4644 469.9407,619.8237 Q468.6282,618.1675 468.6282,615.0425 Q468.6282,611.9175 469.9407,610.2612 Q471.2688,608.605 473.7688,608.605 Q474.472,608.605 475.1126,608.7612 Q475.7688,608.9175 476.3313,609.2144 L476.3313,611.9331 Q475.7063,611.355 475.1126,611.0894 Q474.5188,610.8081 473.8938,610.8081 Q472.5501,610.8081 471.8626,611.8862 Q471.1751,612.9487 471.1751,615.0425 Q471.1751,617.1362 471.8626,618.2144 Q472.5501,619.2769 473.8938,619.2769 Q474.5188,619.2769 475.1126,619.0112 Q475.7063,618.73 476.3313,618.1519 L476.3313,620.8706 Z " fill="#000000"/><text fill="#000000" font-family="sans-serif" font-size="14" lengthAdjust="spacing" textLength="139.2754" x="488.6076" y="620.0767">&#1041;&#1072;&#1075;&#1096;&#1080;&#1081;&#1085;_&#1055;&#1088;&#1086;&#1092;&#1072;&#1081;&#1083;</text><line style="stroke:#181818;stroke-width:0.5;" x1="453.76" x2="635.4856" y1="631.23" y2="631.23"/><g data-visibility-modifier="PUBLIC_FIELD"><ellipse cx="463.76" cy="644.8784" fill="none" rx="3" ry="3" style="stroke:#038048;stroke-width:1;"/></g><text fill="#000000" font-family="sans-serif" font-size="14" lengthAdjust="spacing" textLength="77.2666" x="472.76" y="648.2251">&#1050;&#1086;&#1076;: bigint</text><g data-visibility-modifier="PUBLIC_FIELD"><ellipse cx="463.76" cy="661.1753" fill="none" rx="3" ry="3" style="stroke:#038048;stroke-width:1;"/></g><text fill="#000000" font-family="sans-serif" font-size="14" lengthAdjust="spacing" textLength="157.7256" x="472.76" y="664.522">&#1061;&#1101;&#1088;&#1101;&#1075;&#1083;&#1101;&#1075;&#1095;_&#1050;&#1086;&#1076;: bigint</text><line style="stroke:#181818;stroke-width:0.5;" x1="453.76" x2="635.4856" y1="671.8237" y2="671.8237"/><g data-visibility-modifier="PUBLIC_METHOD"><ellipse cx="463.76" cy="685.4722" fill="#84BE84" rx="3" ry="3" style="stroke:#038048;stroke-width:1;"/></g><text fill="#000000" font-family="sans-serif" font-size="14" lengthAdjust="spacing" textLength="127.4355" x="472.76" y="688.8189">&#1053;&#1101;&#1088;: varchar(256)</text></g><!--class ??????--><g class="entity" data-entity="......" data-source-line="29" data-uid="ent0006" id="entity_......"><rect fill="#F1F1F1" height="96.8906" rx="2.5" ry="2.5" style="stroke:#181818;stroke-width:0.5;" width="153.4355" x="225.9" y="599.23"/><ellipse cx="272.7296" cy="615.23" fill="#ADD1B2" rx="11" ry="11" style="stroke:#181818;stroke-width:1;"/><path d="M275.6983,620.8706 Q275.1202,621.1675 274.4796,621.3081 Q273.839,621.4644 273.1358,621.4644 Q270.6358,621.4644 269.3077,619.8237 Q267.9952,618.1675 267.9952,615.0425 Q267.9952,611.9175 269.3077,610.2612 Q270.6358,608.605 273.1358,608.605 Q273.839,608.605 274.4796,608.7612 Q275.1358,608.9175 275.6983,609.2144 L275.6983,611.9331 Q275.0733,611.355 274.4796,611.0894 Q273.8858,610.8081 273.2608,610.8081 Q271.9171,610.8081 271.2296,611.8862 Q270.5421,612.9487 270.5421,615.0425 Q270.5421,617.1362 271.2296,618.2144 Q271.9171,619.2769 273.2608,619.2769 Q273.8858,619.2769 274.4796,619.0112 Q275.0733,618.73 275.6983,618.1519 L275.6983,620.8706 Z " fill="#000000"/><text fill="#000000" font-family="sans-serif" font-size="14" lengthAdjust="spacing" textLength="51.2764" x="293.2296" y="620.0767">&#1061;&#1080;&#1095;&#1101;&#1101;&#1083;</text><line style="stroke:#181818;stroke-width:0.5;" x1="226.9" x2="378.3355" y1="631.23" y2="631.23"/><g data-visibility-modifier="PUBLIC_FIELD"><ellipse cx="236.9" cy="644.8784" fill="none" rx="3" ry="3" style="stroke:#038048;stroke-width:1;"/></g><text fill="#000000" font-family="sans-serif" font-size="14" lengthAdjust="spacing" textLength="77.2666" x="245.9" y="648.2251">&#1050;&#1086;&#1076;: bigint</text><line style="stroke:#181818;stroke-width:0.5;" x1="226.9" x2="378.3355" y1="655.5269" y2="655.5269"/><g data-visibility-modifier="PUBLIC_METHOD"><ellipse cx="236.9" cy="669.1753" fill="#84BE84" rx="3" ry="3" style="stroke:#038048;stroke-width:1;"/></g><text fill="#000000" font-family="sans-serif" font-size="14" lengthAdjust="spacing" textLength="127.4355" x="245.9" y="672.522">&#1053;&#1101;&#1088;: varchar(200)</text><g data-visibility-modifier="PUBLIC_METHOD"><ellipse cx="236.9" cy="685.4722" fill="#84BE84" rx="3" ry="3" style="stroke:#038048;stroke-width:1;"/></g><text fill="#000000" font-family="sans-serif" font-size="14" lengthAdjust="spacing" textLength="119.6152" x="245.9" y="688.8189">&#1050;&#1086;&#1076;: varchar(50)</text></g><!--class ?????????_???????--><g class="entity" data-entity="........._......." data-source-line="35" data-uid="ent0007" id="entity_........._......."><rect fill="#F1F1F1" height="194.6719" rx="2.5" ry="2.5" style="stroke:#181818;stroke-width:0.5;" width="246.1787" x="547.53" y="311.26"/><ellipse cx="592.5617" cy="327.26" fill="#ADD1B2" rx="11" ry="11" style="stroke:#181818;stroke-width:1;"/><path d="M595.5305,332.9006 Q594.9524,333.1975 594.3117,333.3381 Q593.6711,333.4944 592.968,333.4944 Q590.468,333.4944 589.1399,331.8537 Q587.8274,330.1975 587.8274,327.0725 Q587.8274,323.9475 589.1399,322.2912 Q590.468,320.635 592.968,320.635 Q593.6711,320.635 594.3117,320.7912 Q594.968,320.9475 595.5305,321.2444 L595.5305,323.9631 Q594.9055,323.385 594.3117,323.1194 Q593.718,322.8381 593.093,322.8381 Q591.7492,322.8381 591.0617,323.9162 Q590.3742,324.9787 590.3742,327.0725 Q590.3742,329.1662 591.0617,330.2444 Q591.7492,331.3069 593.093,331.3069 Q593.718,331.3069 594.3117,331.0412 Q594.9055,330.76 595.5305,330.1819 L595.5305,332.9006 Z " fill="#000000"/><text fill="#000000" font-family="sans-serif" font-size="14" lengthAdjust="spacing" textLength="147.6152" x="613.0617" y="332.1067">&#1057;&#1091;&#1088;&#1075;&#1072;&#1083;&#1090;&#1099;&#1085;_&#1061;&#1091;&#1074;&#1072;&#1072;&#1088;&#1100;</text><line style="stroke:#181818;stroke-width:0.5;" x1="548.53" x2="792.7087" y1="343.26" y2="343.26"/><g data-visibility-modifier="PUBLIC_FIELD"><ellipse cx="558.53" cy="356.9084" fill="none" rx="3" ry="3" style="stroke:#038048;stroke-width:1;"/></g><text fill="#000000" font-family="sans-serif" font-size="14" lengthAdjust="spacing" textLength="77.2666" x="567.53" y="360.2551">&#1050;&#1086;&#1076;: bigint</text><g data-visibility-modifier="PUBLIC_FIELD"><ellipse cx="558.53" cy="373.2053" fill="none" rx="3" ry="3" style="stroke:#038048;stroke-width:1;"/></g><text fill="#000000" font-family="sans-serif" font-size="14" lengthAdjust="spacing" textLength="122.6162" x="567.53" y="376.552">&#1041;&#1072;&#1075;&#1096;_&#1050;&#1086;&#1076;: bigint</text><g data-visibility-modifier="PUBLIC_FIELD"><ellipse cx="558.53" cy="389.5022" fill="none" rx="3" ry="3" style="stroke:#038048;stroke-width:1;"/></g><text fill="#000000" font-family="sans-serif" font-size="14" lengthAdjust="spacing" textLength="135.543" x="567.53" y="392.8489">&#1061;&#1080;&#1095;&#1101;&#1101;&#1083;_&#1050;&#1086;&#1076;: bigint</text><g data-visibility-modifier="PUBLIC_FIELD"><ellipse cx="558.53" cy="405.7991" fill="none" rx="3" ry="3" style="stroke:#038048;stroke-width:1;"/></g><text fill="#000000" font-family="sans-serif" font-size="14" lengthAdjust="spacing" textLength="98.4375" x="567.53" y="409.1457">&#1058;&#1086;&#1082;&#1077;&#1085;: uu&#1050;&#1086;&#1076;</text><g data-visibility-modifier="PUBLIC_FIELD"><ellipse cx="558.53" cy="422.0959" fill="none" rx="3" ry="3" style="stroke:#038048;stroke-width:1;"/></g><text fill="#000000" font-family="sans-serif" font-size="14" lengthAdjust="spacing" textLength="151.293" x="567.53" y="425.4426">&#1041;&#1072;&#1081;&#1088;&#1096;&#1080;&#1083;_&#1050;&#1086;&#1076;: bigint</text><g data-visibility-modifier="PUBLIC_FIELD"><ellipse cx="558.53" cy="438.3928" fill="none" rx="3" ry="3" style="stroke:#038048;stroke-width:1;"/></g><text fill="#000000" font-family="sans-serif" font-size="14" lengthAdjust="spacing" textLength="85.3945" x="567.53" y="441.7395">&#1054;&#1075;&#1085;&#1086;&#1086;: date</text><g data-visibility-modifier="PUBLIC_FIELD"><ellipse cx="558.53" cy="454.6897" fill="none" rx="3" ry="3" style="stroke:#038048;stroke-width:1;"/></g><text fill="#000000" font-family="sans-serif" font-size="14" lengthAdjust="spacing" textLength="208.3936" x="567.53" y="458.0364">&#1041;&#1199;&#1088;&#1090;&#1075;&#1101;&#1089;&#1101;&#1085;_&#1086;&#1075;&#1085;&#1086;&#1086;: timestamp</text><line style="stroke:#181818;stroke-width:0.5;" x1="548.53" x2="792.7087" y1="465.3381" y2="465.3381"/><g data-visibility-modifier="PUBLIC_METHOD"><ellipse cx="558.53" cy="478.9866" fill="#84BE84" rx="3" ry="3" style="stroke:#038048;stroke-width:1;"/></g><text fill="#000000" font-family="sans-serif" font-size="14" lengthAdjust="spacing" textLength="191.29" x="567.53" y="482.3332">&#1062;&#1072;&#1075;&#1080;&#1081;&#1085;_&#1093;&#1101;&#1089;&#1101;&#1075;: varchar(20)</text><g data-visibility-modifier="PUBLIC_METHOD"><ellipse cx="558.53" cy="495.2834" fill="#84BE84" rx="3" ry="3" style="stroke:#038048;stroke-width:1;"/></g><text fill="#000000" font-family="sans-serif" font-size="14" lengthAdjust="spacing" textLength="220.1787" x="567.53" y="498.6301">&#1061;&#1080;&#1095;&#1101;&#1101;&#1083;&#1080;&#1081;&#1085;_&#1090;&#1257;&#1088;&#1257;&#1083;: varchar(80)</text></g><!--class ???--><g class="entity" data-entity="..." data-source-line="47" data-uid="ent0008" id="entity_..."><rect fill="#F1F1F1" height="227.2656" rx="2.5" ry="2.5" style="stroke:#181818;stroke-width:0.5;" width="312.7197" x="557.26" y="7"/><ellipse cx="694.9255" cy="23" fill="#ADD1B2" rx="11" ry="11" style="stroke:#181818;stroke-width:1;"/><path d="M697.8943,28.6406 Q697.3162,28.9375 696.6755,29.0781 Q696.0349,29.2344 695.3318,29.2344 Q692.8318,29.2344 691.5037,27.5938 Q690.1912,25.9375 690.1912,22.8125 Q690.1912,19.6875 691.5037,18.0313 Q692.8318,16.375 695.3318,16.375 Q696.0349,16.375 696.6755,16.5313 Q697.3318,16.6875 697.8943,16.9844 L697.8943,19.7031 Q697.2693,19.125 696.6755,18.8594 Q696.0818,18.5781 695.4568,18.5781 Q694.113,18.5781 693.4255,19.6563 Q692.738,20.7188 692.738,22.8125 Q692.738,24.9063 693.4255,25.9844 Q694.113,27.0469 695.4568,27.0469 Q696.0818,27.0469 696.6755,26.7813 Q697.2693,26.5 697.8943,25.9219 L697.8943,28.6406 Z " fill="#000000"/><text fill="#000000" font-family="sans-serif" font-size="14" lengthAdjust="spacing" textLength="28.8887" x="715.4255" y="27.8467">&#1048;&#1088;&#1094;</text><line style="stroke:#181818;stroke-width:0.5;" x1="558.26" x2="868.9797" y1="39" y2="39"/><g data-visibility-modifier="PUBLIC_FIELD"><ellipse cx="568.26" cy="52.6484" fill="none" rx="3" ry="3" style="stroke:#038048;stroke-width:1;"/></g><text fill="#000000" font-family="sans-serif" font-size="14" lengthAdjust="spacing" textLength="77.2666" x="577.26" y="55.9951">&#1050;&#1086;&#1076;: bigint</text><g data-visibility-modifier="PUBLIC_FIELD"><ellipse cx="568.26" cy="68.9453" fill="none" rx="3" ry="3" style="stroke:#038048;stroke-width:1;"/></g><text fill="#000000" font-family="sans-serif" font-size="14" lengthAdjust="spacing" textLength="144.6895" x="577.26" y="72.292">&#1061;&#1091;&#1074;&#1072;&#1072;&#1088;&#1100;_&#1050;&#1086;&#1076;: bigint</text><g data-visibility-modifier="PUBLIC_FIELD"><ellipse cx="568.26" cy="85.2422" fill="none" rx="3" ry="3" style="stroke:#038048;stroke-width:1;"/></g><text fill="#000000" font-family="sans-serif" font-size="14" lengthAdjust="spacing" textLength="141.2441" x="577.26" y="88.5889">&#1054;&#1102;&#1091;&#1090;&#1072;&#1085;_&#1050;&#1086;&#1076;: bigint</text><g data-visibility-modifier="PUBLIC_FIELD"><ellipse cx="568.26" cy="101.5391" fill="none" rx="3" ry="3" style="stroke:#038048;stroke-width:1;"/></g><text fill="#000000" font-family="sans-serif" font-size="14" lengthAdjust="spacing" textLength="161.8066" x="577.26" y="104.8857">&#1054;&#1075;&#1085;&#1086;&#1086;_&#1094;&#1072;&#1075;: timestamp</text><g data-visibility-modifier="PUBLIC_FIELD"><ellipse cx="568.26" cy="117.8359" fill="none" rx="3" ry="3" style="stroke:#038048;stroke-width:1;"/></g><text fill="#000000" font-family="sans-serif" font-size="14" lengthAdjust="spacing" textLength="117.5166" x="577.26" y="121.1826">&#1256;&#1088;&#1075;&#1257;&#1088;&#1257;&#1075;: double</text><g data-visibility-modifier="PUBLIC_FIELD"><ellipse cx="568.26" cy="134.1328" fill="none" rx="3" ry="3" style="stroke:#038048;stroke-width:1;"/></g><text fill="#000000" font-family="sans-serif" font-size="14" lengthAdjust="spacing" textLength="107.2764" x="577.26" y="137.4795">&#1059;&#1088;&#1090;&#1088;&#1072;&#1075;: double</text><g data-visibility-modifier="PUBLIC_FIELD"><ellipse cx="568.26" cy="150.4297" fill="none" rx="3" ry="3" style="stroke:#038048;stroke-width:1;"/></g><text fill="#000000" font-family="sans-serif" font-size="14" lengthAdjust="spacing" textLength="149.9258" x="577.26" y="153.7764">&#1040;&#1084;&#1078;&#1080;&#1083;&#1090;&#1090;&#1072;&#1081;: boolean</text><line style="stroke:#181818;stroke-width:0.5;" x1="558.26" x2="868.9797" y1="161.0781" y2="161.0781"/><g data-visibility-modifier="PUBLIC_METHOD"><ellipse cx="568.26" cy="174.7266" fill="#84BE84" rx="3" ry="3" style="stroke:#038048;stroke-width:1;"/></g><text fill="#000000" font-family="sans-serif" font-size="14" lengthAdjust="spacing" textLength="177.4336" x="577.26" y="178.0732">&#1058;&#1101;&#1084;&#1076;&#1101;&#1075;&#1083;&#1101;&#1083;: varchar(255)</text><g data-visibility-modifier="PUBLIC_METHOD"><ellipse cx="568.26" cy="191.0234" fill="#84BE84" rx="3" ry="3" style="stroke:#038048;stroke-width:1;"/></g><text fill="#000000" font-family="sans-serif" font-size="14" lengthAdjust="spacing" textLength="218.6816" x="577.26" y="194.3701">&#1058;&#1257;&#1093;&#1257;&#1257;&#1088;&#1257;&#1084;&#1078;_&#1050;&#1086;&#1076;: varchar(200)</text><g data-visibility-modifier="PUBLIC_METHOD"><ellipse cx="568.26" cy="207.3203" fill="#84BE84" rx="3" ry="3" style="stroke:#038048;stroke-width:1;"/></g><text fill="#000000" font-family="sans-serif" font-size="14" lengthAdjust="spacing" textLength="286.7197" x="577.26" y="210.667">&#1058;&#1257;&#1093;&#1257;&#1257;&#1088;&#1257;&#1084;&#1078;&#1080;&#1081;&#1085;_&#1084;&#1101;&#1076;&#1101;&#1101;&#1083;&#1101;&#1083;: varchar(512)</text><g data-visibility-modifier="PUBLIC_METHOD"><ellipse cx="568.26" cy="223.6172" fill="#84BE84" rx="3" ry="3" style="stroke:#038048;stroke-width:1;"/></g><text fill="#000000" font-family="sans-serif" font-size="14" lengthAdjust="spacing" textLength="134.3125" x="577.26" y="226.9639">&#1058;&#1257;&#1083;&#1257;&#1074;: varchar(50)</text></g><!--class ??????--><g class="entity" data-entity="......" data-source-line="61" data-uid="ent0009" id="entity_......"><rect fill="#F1F1F1" height="96.8906" rx="2.5" ry="2.5" style="stroke:#181818;stroke-width:0.5;" width="167.2441" x="7" y="72.18"/><ellipse cx="60.7681" cy="88.18" fill="#ADD1B2" rx="11" ry="11" style="stroke:#181818;stroke-width:1;"/><path d="M63.7368,93.8206 Q63.1587,94.1175 62.5181,94.2581 Q61.8774,94.4144 61.1743,94.4144 Q58.6743,94.4144 57.3462,92.7737 Q56.0337,91.1175 56.0337,87.9925 Q56.0337,84.8675 57.3462,83.2112 Q58.6743,81.555 61.1743,81.555 Q61.8774,81.555 62.5181,81.7112 Q63.1743,81.8675 63.7368,82.1644 L63.7368,84.8831 Q63.1118,84.305 62.5181,84.0394 Q61.9243,83.7581 61.2993,83.7581 Q59.9556,83.7581 59.2681,84.8362 Q58.5806,85.8987 58.5806,87.9925 Q58.5806,90.0862 59.2681,91.1644 Q59.9556,92.2269 61.2993,92.2269 Q61.9243,92.2269 62.5181,91.9612 Q63.1118,91.68 63.7368,91.1019 L63.7368,93.8206 Z " fill="#000000"/><text fill="#000000" font-family="sans-serif" font-size="14" lengthAdjust="spacing" textLength="51.208" x="81.2681" y="93.0267">&#1069;&#1083;&#1089;&#1101;&#1083;&#1090;</text><line style="stroke:#181818;stroke-width:0.5;" x1="8" x2="173.2441" y1="104.18" y2="104.18"/><g data-visibility-modifier="PUBLIC_FIELD"><ellipse cx="18" cy="117.8284" fill="none" rx="3" ry="3" style="stroke:#038048;stroke-width:1;"/></g><text fill="#000000" font-family="sans-serif" font-size="14" lengthAdjust="spacing" textLength="77.2666" x="27" y="121.1751">&#1050;&#1086;&#1076;: bigint</text><g data-visibility-modifier="PUBLIC_FIELD"><ellipse cx="18" cy="134.1253" fill="none" rx="3" ry="3" style="stroke:#038048;stroke-width:1;"/></g><text fill="#000000" font-family="sans-serif" font-size="14" lengthAdjust="spacing" textLength="141.2441" x="27" y="137.472">&#1054;&#1102;&#1091;&#1090;&#1072;&#1085;_&#1050;&#1086;&#1076;: bigint</text><g data-visibility-modifier="PUBLIC_FIELD"><ellipse cx="18" cy="150.4222" fill="none" rx="3" ry="3" style="stroke:#038048;stroke-width:1;"/></g><text fill="#000000" font-family="sans-serif" font-size="14" lengthAdjust="spacing" textLength="135.543" x="27" y="153.7689">&#1061;&#1080;&#1095;&#1101;&#1101;&#1083;_&#1050;&#1086;&#1076;: bigint</text><line style="stroke:#181818;stroke-width:0.5;" x1="8" x2="173.2441" y1="161.0706" y2="161.0706"/></g><!--class ???????--><g class="entity" data-entity="......." data-source-line="67" data-uid="ent0010" id="entity_......."><rect fill="#F1F1F1" height="129.4844" rx="2.5" ry="2.5" style="stroke:#181818;stroke-width:0.5;" width="153.4355" x="671.9" y="582.93"/><ellipse cx="711.3841" cy="598.93" fill="#ADD1B2" rx="11" ry="11" style="stroke:#181818;stroke-width:1;"/><path d="M714.3529,604.5706 Q713.7748,604.8675 713.1341,605.0081 Q712.4935,605.1644 711.7904,605.1644 Q709.2904,605.1644 707.9623,603.5238 Q706.6498,601.8675 706.6498,598.7425 Q706.6498,595.6175 707.9623,593.9613 Q709.2904,592.305 711.7904,592.305 Q712.4935,592.305 713.1341,592.4613 Q713.7904,592.6175 714.3529,592.9144 L714.3529,595.6331 Q713.7279,595.055 713.1341,594.7894 Q712.5404,594.5081 711.9154,594.5081 Q710.5716,594.5081 709.8841,595.5863 Q709.1966,596.6488 709.1966,598.7425 Q709.1966,600.8363 709.8841,601.9144 Q710.5716,602.9769 711.9154,602.9769 Q712.5404,602.9769 713.1341,602.7113 Q713.7279,602.43 714.3529,601.8519 L714.3529,604.5706 Z " fill="#000000"/><text fill="#000000" font-family="sans-serif" font-size="14" lengthAdjust="spacing" textLength="67.0264" x="730.825" y="603.7767">&#1041;&#1072;&#1081;&#1088;&#1096;&#1080;&#1083;</text><line style="stroke:#181818;stroke-width:0.5;" x1="672.9" x2="824.3355" y1="614.93" y2="614.93"/><g data-visibility-modifier="PUBLIC_FIELD"><ellipse cx="682.9" cy="628.5784" fill="none" rx="3" ry="3" style="stroke:#038048;stroke-width:1;"/></g><text fill="#000000" font-family="sans-serif" font-size="14" lengthAdjust="spacing" textLength="77.2666" x="691.9" y="631.9251">&#1050;&#1086;&#1076;: bigint</text><g data-visibility-modifier="PUBLIC_FIELD"><ellipse cx="682.9" cy="644.8753" fill="none" rx="3" ry="3" style="stroke:#038048;stroke-width:1;"/></g><text fill="#000000" font-family="sans-serif" font-size="14" lengthAdjust="spacing" textLength="117.5166" x="691.9" y="648.222">&#1256;&#1088;&#1075;&#1257;&#1088;&#1257;&#1075;: double</text><g data-visibility-modifier="PUBLIC_FIELD"><ellipse cx="682.9" cy="661.1722" fill="none" rx="3" ry="3" style="stroke:#038048;stroke-width:1;"/></g><text fill="#000000" font-family="sans-serif" font-size="14" lengthAdjust="spacing" textLength="107.2764" x="691.9" y="664.5189">&#1059;&#1088;&#1090;&#1088;&#1072;&#1075;: double</text><g data-visibility-modifier="PUBLIC_FIELD"><ellipse cx="682.9" cy="677.4691" fill="none" rx="3" ry="3" style="stroke:#038048;stroke-width:1;"/></g><text fill="#000000" font-family="sans-serif" font-size="14" lengthAdjust="spacing" textLength="96.7627" x="691.9" y="680.8157">&#1056;&#1072;&#1076;&#1080;&#1091;&#1089;_&#1084;: int</text><line style="stroke:#181818;stroke-width:0.5;" x1="672.9" x2="824.3355" y1="688.1175" y2="688.1175"/><g data-visibility-modifier="PUBLIC_METHOD"><ellipse cx="682.9" cy="701.7659" fill="#84BE84" rx="3" ry="3" style="stroke:#038048;stroke-width:1;"/></g><text fill="#000000" font-family="sans-serif" font-size="14" lengthAdjust="spacing" textLength="127.4355" x="691.9" y="705.1126">&#1053;&#1101;&#1088;: varchar(100)</text></g><!--class ????????????_???????--><g class="entity" data-entity="............_......." data-source-line="75" data-uid="ent0011" id="entity_............_......."><rect fill="#F1F1F1" height="129.4844" rx="2.5" ry="2.5" style="stroke:#181818;stroke-width:0.5;" width="312.7197" x="209.26" y="55.89"/><ellipse cx="273.1555" cy="71.89" fill="#ADD1B2" rx="11" ry="11" style="stroke:#181818;stroke-width:1;"/><path d="M276.1243,77.5306 Q275.5461,77.8275 274.9055,77.9681 Q274.2649,78.1244 273.5618,78.1244 Q271.0618,78.1244 269.7336,76.4837 Q268.4211,74.8275 268.4211,71.7025 Q268.4211,68.5775 269.7336,66.9212 Q271.0618,65.265 273.5618,65.265 Q274.2649,65.265 274.9055,65.4212 Q275.5618,65.5775 276.1243,65.8744 L276.1243,68.5931 Q275.4993,68.015 274.9055,67.7494 Q274.3118,67.4681 273.6868,67.4681 Q272.343,67.4681 271.6555,68.5462 Q270.968,69.6087 270.968,71.7025 Q270.968,73.7962 271.6555,74.8744 Q272.343,75.9369 273.6868,75.9369 Q274.3118,75.9369 274.9055,75.6712 Q275.4993,75.39 276.1243,74.8119 L276.1243,77.5306 Z " fill="#000000"/><text fill="#000000" font-family="sans-serif" font-size="14" lengthAdjust="spacing" textLength="176.4287" x="293.6555" y="76.7367">&#1058;&#1257;&#1093;&#1257;&#1257;&#1088;&#1257;&#1084;&#1078;&#1080;&#1081;&#1085;_&#1041;&#1199;&#1088;&#1090;&#1075;&#1101;&#1083;</text><line style="stroke:#181818;stroke-width:0.5;" x1="210.26" x2="520.9797" y1="87.89" y2="87.89"/><g data-visibility-modifier="PUBLIC_FIELD"><ellipse cx="220.26" cy="101.5384" fill="none" rx="3" ry="3" style="stroke:#038048;stroke-width:1;"/></g><text fill="#000000" font-family="sans-serif" font-size="14" lengthAdjust="spacing" textLength="77.2666" x="229.26" y="104.8851">&#1050;&#1086;&#1076;: bigint</text><g data-visibility-modifier="PUBLIC_FIELD"><ellipse cx="220.26" cy="117.8353" fill="none" rx="3" ry="3" style="stroke:#038048;stroke-width:1;"/></g><text fill="#000000" font-family="sans-serif" font-size="14" lengthAdjust="spacing" textLength="141.2441" x="229.26" y="121.182">&#1054;&#1102;&#1091;&#1090;&#1072;&#1085;_&#1050;&#1086;&#1076;: bigint</text><g data-visibility-modifier="PUBLIC_FIELD"><ellipse cx="220.26" cy="134.1322" fill="none" rx="3" ry="3" style="stroke:#038048;stroke-width:1;"/></g><text fill="#000000" font-family="sans-serif" font-size="14" lengthAdjust="spacing" textLength="208.3936" x="229.26" y="137.4789">&#1041;&#1199;&#1088;&#1090;&#1075;&#1101;&#1089;&#1101;&#1085;_&#1086;&#1075;&#1085;&#1086;&#1086;: timestamp</text><line style="stroke:#181818;stroke-width:0.5;" x1="210.26" x2="520.9797" y1="144.7806" y2="144.7806"/><g data-visibility-modifier="PUBLIC_METHOD"><ellipse cx="220.26" cy="158.4291" fill="#84BE84" rx="3" ry="3" style="stroke:#038048;stroke-width:1;"/></g><text fill="#000000" font-family="sans-serif" font-size="14" lengthAdjust="spacing" textLength="218.6816" x="229.26" y="161.7757">&#1058;&#1257;&#1093;&#1257;&#1257;&#1088;&#1257;&#1084;&#1078;_&#1050;&#1086;&#1076;: varchar(200)</text><g data-visibility-modifier="PUBLIC_METHOD"><ellipse cx="220.26" cy="174.7259" fill="#84BE84" rx="3" ry="3" style="stroke:#038048;stroke-width:1;"/></g><text fill="#000000" font-family="sans-serif" font-size="14" lengthAdjust="spacing" textLength="286.7197" x="229.26" y="178.0726">&#1058;&#1257;&#1093;&#1257;&#1257;&#1088;&#1257;&#1084;&#1078;&#1080;&#1081;&#1085;_&#1084;&#1101;&#1076;&#1101;&#1101;&#1083;&#1101;&#1083;: varchar(512)</text></g><!--class ???????_??????--><g class="entity" data-entity="......._......" data-source-line="83" data-uid="ent0012" id="entity_......._......"><rect fill="#F1F1F1" height="145.7813" rx="2.5" ry="2.5" style="stroke:#181818;stroke-width:0.5;" width="160.9482" x="905.15" y="47.74"/><ellipse cx="925.0789" cy="63.74" fill="#ADD1B2" rx="11" ry="11" style="stroke:#181818;stroke-width:1;"/><path d="M928.0477,69.3806 Q927.4695,69.6775 926.8289,69.8181 Q926.1883,69.9744 925.4852,69.9744 Q922.9852,69.9744 921.657,68.3338 Q920.3445,66.6775 920.3445,63.5525 Q920.3445,60.4275 921.657,58.7713 Q922.9852,57.115 925.4852,57.115 Q926.1883,57.115 926.8289,57.2713 Q927.4852,57.4275 928.0477,57.7244 L928.0477,60.4431 Q927.4227,59.865 926.8289,59.5994 Q926.2352,59.3181 925.6102,59.3181 Q924.2664,59.3181 923.5789,60.3963 Q922.8914,61.4588 922.8914,63.5525 Q922.8914,65.6463 923.5789,66.7244 Q924.2664,67.7869 925.6102,67.7869 Q926.2352,67.7869 926.8289,67.5213 Q927.4227,67.24 928.0477,66.6619 L928.0477,69.3806 Z " fill="#000000"/><text fill="#000000" font-family="sans-serif" font-size="14" lengthAdjust="spacing" textLength="117.9951" x="940.1742" y="68.5867">&#1058;&#1086;&#1075;&#1090;&#1084;&#1086;&#1083;_&#1059;&#1090;&#1075;&#1091;&#1091;&#1076;</text><line style="stroke:#181818;stroke-width:0.5;" x1="906.15" x2="1065.0982" y1="79.74" y2="79.74"/><g data-visibility-modifier="PUBLIC_FIELD"><ellipse cx="916.15" cy="93.3884" fill="none" rx="3" ry="3" style="stroke:#038048;stroke-width:1;"/></g><text fill="#000000" font-family="sans-serif" font-size="14" lengthAdjust="spacing" textLength="77.2666" x="925.15" y="96.7351">&#1050;&#1086;&#1076;: bigint</text><g data-visibility-modifier="PUBLIC_FIELD"><ellipse cx="916.15" cy="109.6853" fill="none" rx="3" ry="3" style="stroke:#038048;stroke-width:1;"/></g><text fill="#000000" font-family="sans-serif" font-size="14" lengthAdjust="spacing" textLength="116.2383" x="925.15" y="113.032">&#1069;&#1093;&#1083;&#1101;&#1093;_&#1094;&#1072;&#1075;: time</text><g data-visibility-modifier="PUBLIC_FIELD"><ellipse cx="916.15" cy="125.9822" fill="none" rx="3" ry="3" style="stroke:#038048;stroke-width:1;"/></g><text fill="#000000" font-family="sans-serif" font-size="14" lengthAdjust="spacing" textLength="125.3301" x="925.15" y="129.3289">&#1044;&#1091;&#1091;&#1089;&#1072;&#1093;_&#1094;&#1072;&#1075;: time</text><line style="stroke:#181818;stroke-width:0.5;" x1="906.15" x2="1065.0982" y1="136.6306" y2="136.6306"/><g data-visibility-modifier="PUBLIC_METHOD"><ellipse cx="916.15" cy="150.2791" fill="#84BE84" rx="3" ry="3" style="stroke:#038048;stroke-width:1;"/></g><text fill="#000000" font-family="sans-serif" font-size="14" lengthAdjust="spacing" textLength="134.9482" x="925.15" y="153.6257">&#1058;&#1257;&#1088;&#1257;&#1083;: varchar(80)</text><g data-visibility-modifier="PUBLIC_METHOD"><ellipse cx="916.15" cy="166.5759" fill="#84BE84" rx="3" ry="3" style="stroke:#038048;stroke-width:1;"/></g><text fill="#000000" font-family="sans-serif" font-size="14" lengthAdjust="spacing" textLength="127.4355" x="925.15" y="169.9226">&#1053;&#1101;&#1088;: varchar(200)</text><g data-visibility-modifier="PUBLIC_METHOD"><ellipse cx="916.15" cy="182.8728" fill="#84BE84" rx="3" ry="3" style="stroke:#038048;stroke-width:1;"/></g><text fill="#000000" font-family="sans-serif" font-size="14" lengthAdjust="spacing" textLength="132.959" x="925.15" y="186.2195">&#1059;&#1090;&#1075;&#1072;: varchar(200)</text></g><!--link ????????? to ??????_???????--><g class="link" data-entity-1="........." data-entity-2="......_......." data-source-line="93" data-uid="lnk13" id="link_........._......_......."><path codeLine="93" d="M544.62,951.88 C544.62,978.14 544.62,1000.16 544.62,1022.07" fill="none" id="&#1061;&#1101;&#1088;&#1101;&#1075;&#1083;&#1101;&#1075;&#1095;-to-&#1069;&#1088;&#1093;&#1080;&#1081;&#1085;_&#1058;&#1072;&#1081;&#1083;&#1073;&#1072;&#1088;" style="stroke:#181818;stroke-width:1;"/><polygon fill="#181818" points="544.62,1028.07,548.62,1019.07,544.62,1023.07,540.62,1019.07,544.62,1028.07" style="stroke:#181818;stroke-width:1;"/><text fill="#000000" font-family="sans-serif" font-size="13" lengthAdjust="spacing" textLength="25.0225" x="545.62" y="994.5669">&#1069;&#1088;&#1093;</text></g><!--link ???????_??????? to ?????????--><g class="link" data-entity-1="......._......." data-entity-2="........." data-source-line="94" data-uid="lnk14" id="link_......._......._........."><path codeLine="94" d="M544.62,696.58 C544.62,723.6 544.62,752.05 544.62,783.08" fill="none" id="&#1041;&#1072;&#1075;&#1096;&#1080;&#1081;&#1085;_&#1055;&#1088;&#1086;&#1092;&#1072;&#1081;&#1083;-to-&#1061;&#1101;&#1088;&#1101;&#1075;&#1083;&#1101;&#1075;&#1095;" style="stroke:#181818;stroke-width:1;"/><polygon fill="#181818" points="544.62,789.08,548.62,780.08,544.62,784.08,540.62,780.08,544.62,789.08" style="stroke:#181818;stroke-width:1;"/><text fill="#000000" font-family="sans-serif" font-size="13" lengthAdjust="spacing" textLength="100.8833" x="545.62" y="755.4869">&#1061;&#1101;&#1088;&#1101;&#1075;&#1083;&#1101;&#1075;&#1095;_&#1050;&#1086;&#1076;</text></g><!--link ?????????_??????? to ???????_???????--><g class="link" data-entity-1="........._......." data-entity-2="......._......." data-source-line="95" data-uid="lnk15" id="link_........._......._......._......."><path codeLine="95" d="M619.19,506.37 C602.25,538.25 586.9672,567.0125 572.8372,593.5825" fill="none" id="&#1057;&#1091;&#1088;&#1075;&#1072;&#1083;&#1090;&#1099;&#1085;_&#1061;&#1091;&#1074;&#1072;&#1072;&#1088;&#1100;-to-&#1041;&#1072;&#1075;&#1096;&#1080;&#1081;&#1085;_&#1055;&#1088;&#1086;&#1092;&#1072;&#1081;&#1083;" style="stroke:#181818;stroke-width:1;"/><polygon fill="#181818" points="570.02,598.88,577.7775,592.8119,572.3677,594.4654,570.7142,589.0556,570.02,598.88" style="stroke:#181818;stroke-width:1;"/><text fill="#000000" font-family="sans-serif" font-size="13" lengthAdjust="spacing" textLength="68.2817" x="601.62" y="548.9969">&#1041;&#1072;&#1075;&#1096;_&#1050;&#1086;&#1076;</text></g><!--link ?????????_??????? to ??????--><g class="link" data-entity-1="........._......." data-entity-2="......" data-source-line="96" data-uid="lnk16" id="link_........._......._......"><path codeLine="96" d="M547.06,489.2 C490.68,525.52 430.8342,564.081 382.0842,595.481" fill="none" id="&#1057;&#1091;&#1088;&#1075;&#1072;&#1083;&#1090;&#1099;&#1085;_&#1061;&#1091;&#1074;&#1072;&#1072;&#1088;&#1100;-to-&#1061;&#1080;&#1095;&#1101;&#1101;&#1083;" style="stroke:#181818;stroke-width:1;"/><polygon fill="#181818" points="377.04,598.73,386.7723,597.2193,381.2435,596.0225,382.4403,590.4937,377.04,598.73" style="stroke:#181818;stroke-width:1;"/><text fill="#000000" font-family="sans-serif" font-size="13" lengthAdjust="spacing" textLength="80.2852" x="465.62" y="548.9969">&#1061;&#1080;&#1095;&#1101;&#1101;&#1083;_&#1050;&#1086;&#1076;</text></g><!--link ?????????_??????? to ???????--><g class="link" data-entity-1="........._......." data-entity-2="......." data-source-line="97" data-uid="lnk17" id="link_........._......._......."><path codeLine="97" d="M702.46,506.37 C710.93,532.1 717.9845,553.5607 725.7145,577.0507" fill="none" id="&#1057;&#1091;&#1088;&#1075;&#1072;&#1083;&#1090;&#1099;&#1085;_&#1061;&#1091;&#1074;&#1072;&#1072;&#1088;&#1100;-to-&#1041;&#1072;&#1081;&#1088;&#1096;&#1080;&#1083;" style="stroke:#181818;stroke-width:1;"/><polygon fill="#181818" points="727.59,582.75,728.5763,572.9507,726.0271,578.0006,720.9772,575.4513,727.59,582.75" style="stroke:#181818;stroke-width:1;"/><text fill="#000000" font-family="sans-serif" font-size="13" lengthAdjust="spacing" textLength="94.9102" x="716.62" y="548.9969">&#1041;&#1072;&#1081;&#1088;&#1096;&#1080;&#1083;_&#1050;&#1086;&#1076;</text></g><!--link ??? to ?????????_???????--><g class="link" data-entity-1="..." data-entity-2="........._......." data-source-line="98" data-uid="lnk18" id="link_..._........._......."><path codeLine="98" d="M696.63,234.65 C692.82,259.94 689.7118,280.6066 686.0218,305.1566" fill="none" id="&#1048;&#1088;&#1094;-to-&#1057;&#1091;&#1088;&#1075;&#1072;&#1083;&#1090;&#1099;&#1085;_&#1061;&#1091;&#1074;&#1072;&#1072;&#1088;&#1100;" style="stroke:#181818;stroke-width:1;"/><polygon fill="#181818" points="685.13,311.09,690.4233,302.7845,685.8732,306.1455,682.5122,301.5954,685.13,311.09" style="stroke:#181818;stroke-width:1;"/><text fill="#000000" font-family="sans-serif" font-size="13" lengthAdjust="spacing" textLength="88.7783" x="692.62" y="277.3269">&#1061;&#1091;&#1074;&#1072;&#1072;&#1088;&#1100;_&#1050;&#1086;&#1076;</text></g><!--link ??? to ??????--><g class="link" data-entity-1="..." data-entity-2="......" data-source-line="99" data-uid="lnk19" id="link_..._......"><path codeLine="99" d="M576.08,234.65 C523.08,278.21 469.9856,321.8407 428.4156,356.0007" fill="none" id="&#1048;&#1088;&#1094;-to-&#1054;&#1102;&#1091;&#1090;&#1072;&#1085;" style="stroke:#181818;stroke-width:1;"/><polygon fill="#181818" points="423.78,359.81,433.273,357.1864,427.643,356.6356,428.1939,351.0056,423.78,359.81" style="stroke:#181818;stroke-width:1;"/><text fill="#000000" font-family="sans-serif" font-size="13" lengthAdjust="spacing" textLength="85.5791" x="540.62" y="277.3269">&#1054;&#1102;&#1091;&#1090;&#1072;&#1085;_&#1050;&#1086;&#1076;</text></g><!--link ?????? to ??????--><g class="link" data-entity-1="......" data-entity-2="......" data-source-line="100" data-uid="lnk20" id="link_......_......"><path codeLine="100" d="M132.55,169.57 C150.49,189.78 171.83,213.4 191.62,234.26 C232.71,277.57 276.6077,321.1576 311.8377,355.5676" fill="none" id="&#1069;&#1083;&#1089;&#1101;&#1083;&#1090;-to-&#1054;&#1102;&#1091;&#1090;&#1072;&#1085;" style="stroke:#181818;stroke-width:1;"/><polygon fill="#181818" points="316.13,359.76,312.4865,350.6099,312.5531,356.2663,306.8966,356.3329,316.13,359.76" style="stroke:#181818;stroke-width:1;"/><text fill="#000000" font-family="sans-serif" font-size="13" lengthAdjust="spacing" textLength="85.5791" x="235.62" y="277.3269">&#1054;&#1102;&#1091;&#1090;&#1072;&#1085;_&#1050;&#1086;&#1076;</text></g><!--link ?????? to ??????--><g class="link" data-entity-1="......" data-entity-2="......" data-source-line="101" data-uid="lnk21" id="link_......_......"><path codeLine="101" d="M90.31,169.53 C91.74,245.31 102.45,395.54 160.62,505.93 C179.56,541.86 206.3111,570.4143 234.7111,595.0943" fill="none" id="&#1069;&#1083;&#1089;&#1101;&#1083;&#1090;-to-&#1061;&#1080;&#1095;&#1101;&#1101;&#1083;" style="stroke:#181818;stroke-width:1;"/><polygon fill="#181818" points="239.24,599.03,235.0705,590.1073,235.4659,595.7503,229.8229,596.1458,239.24,599.03" style="stroke:#181818;stroke-width:1;"/><text fill="#000000" font-family="sans-serif" font-size="13" lengthAdjust="spacing" textLength="80.2852" x="161.62" y="413.1669">&#1061;&#1080;&#1095;&#1101;&#1101;&#1083;_&#1050;&#1086;&#1076;</text></g><!--link ????????????_??????? to ??????--><g class="link" data-entity-1="............_......." data-entity-2="......" data-source-line="102" data-uid="lnk22" id="link_............_......._......"><path codeLine="102" d="M365.62,185.81 C365.62,238.67 365.62,306.42 365.62,354.1" fill="none" id="&#1058;&#1257;&#1093;&#1257;&#1257;&#1088;&#1257;&#1084;&#1078;&#1080;&#1081;&#1085;_&#1041;&#1199;&#1088;&#1090;&#1075;&#1101;&#1083;-to-&#1054;&#1102;&#1091;&#1090;&#1072;&#1085;" style="stroke:#181818;stroke-width:1;"/><polygon fill="#181818" points="365.62,360.1,369.62,351.1,365.62,355.1,361.62,351.1,365.62,360.1" style="stroke:#181818;stroke-width:1;"/><text fill="#000000" font-family="sans-serif" font-size="13" lengthAdjust="spacing" textLength="85.5791" x="366.62" y="277.3269">&#1054;&#1102;&#1091;&#1090;&#1072;&#1085;_&#1050;&#1086;&#1076;</text></g><!--SRC=[lLPTQzfG6BxFhpXtRHc5Ld2CNEmVx6RiFgHjfc4sAIPkZ35GE-sWSwomYp9ekpaSywBKjQxKQlmDvzG_jEV4atfYOf9wCOCXvFrydlD-P8MyqBTAXaDqXsoNTCV1unlJBP9djbMmIwPk4Trro-PMnJM8fUyQZkAh4TfXBLPbBNf5X_pE3iWxXU3tY7wZOzfNoPPPC2rNl3jUfoEe3UXG9Q_rydPHBwzkvZVMXFWShXfp9aUqn-gqHuS8qSDrpMguUzhTnTq5L6sxPEYMqEtGCQlI6vuCWb_HFdJ72tIFxYuGhOwKMwo6d3pDD_5m7wl4DO7HrNVtXFO9syVLr600L3mCQ-1fu0SQileCJex3UQy4_FYGaDA01sWZSsxo1vYgYKITS5fdJiC-Jzbd9CD9yHAT17eUEzJexLH1zZWZeZubm0j7pMs4mk8amDR70CmPg1wp3rD8YNb4QaJBWZcNVon7xz0RTW2DLagmanWC8UruJd-0gQfVOZXDTiW1TjW-lUGrX-G_9SOKpCJ3aXAFLsZZtItzIpsLL2fJ3Sdl0D4vvmkCJsSrkwExnbB5_OkdBuwLDOJ9bSpXMXHBe5-VT5brqfKx-ac8sMDaqaof3ubeBR6KUUSdyw2n9eSJGJdvpSzN90lnZbt1n1FMFpbRaFSYaYzqHAyv_P3py8FvET866IDCcg2yXt85vmFYsWZSc7H5UBZKvijHAjI8Sj1oV7Rsf_I78-KtSv8n7U9_kQZIps5SyrtKCqsFXPGd57PuQDoNy4CQT_EUZoLFxZlUzP7YFgk1EPM4yrh8iTGwAGcd4lJ_3ZrhlqlukG8iHdn_QQ2H6sF7qNuYvdPyjwUDNjyzxSNAph4VWOmrGfqhX5_zlOkDFoy6aXNot2ZfhcbRJj7SSyZgIxjic0MBl3BUEcjApAV9-lhJn8si2gcIlEjyDr7lAbcuwPJq_U8xJGohahb5azMhl3fL4jEt3qblrimgYLrGYfZulaMgNv-qwFWFEP6_TrGIqtTAQAWjRPE1funZ8riA_m00]--></g></svg>